<svg xmlns="http://www.w3.org/2000/svg" width="418" height="118" style="width:100%;height:100%;transform:translate3d(0,0,0)"><defs><clipPath id="g"><path d="M0 0h418v118H0z"/></clipPath><clipPath id="o"><path d="M0 0h500v200H0z"/></clipPath><clipPath id="a"><path d="M0 0h418v118H0z"/></clipPath><clipPath id="b"><path d="M0 0h418v118H0z"/></clipPath><clipPath id="c"><path d="M0 0h418v118H0z"/></clipPath><clipPath id="d"><path d="M0 0h418v118H0z"/></clipPath><clipPath id="e"><path d="M0 0h418v118H0z"/></clipPath><clipPath id="f"><path d="M0 0h418v118H0z"/></clipPath><mask id="n" mask-type="alpha"><path d="M37.76 20.92 7.52 33.8a19.67 19.67 0 0 1-25.76-10.52l-25.77-59.7 29.5-12.38c10.01-4.2 29.3 15 33.5 25.02l18.77 44.7z" transform="translate(208.68 58.64)" style="display:block"/></mask><mask id="m" mask-type="alpha"><g clip-path="url(#a)" style="display:block"><g opacity=".99"><path stroke-linecap="round" fill-opacity="0" stroke="#FF7E00" stroke-width="21" d="M20.5 37S10.25 44.5-1 44.5s-22-6.25-33.25-34.75-25-62.5-25-62.5L-104 51.5-147.5-52l-47 108.75" transform="translate(209 59)" opacity="1" style="display:block"/></g></g></mask><mask id="l" mask-type="alpha"><g clip-path="url(#b)" style="display:block"><g opacity=".99"><path stroke-linecap="round" fill-opacity="0" stroke="#FF7E00" stroke-width="21" d="M20.5 37S10.25 44.5-1 44.5s-22-6.25-33.25-34.75-25-62.5-25-62.5L-104 51.5-147.5-52l-47 108.75" transform="translate(209 59)" opacity="1" style="display:block"/></g></g></mask><mask id="k" mask-type="alpha"><g clip-path="url(#c)" style="display:block"><g opacity=".99"><path stroke-linecap="round" fill-opacity="0" stroke="#FF7E00" stroke-width="21" d="M20.5 37S10.25 44.5-1 44.5s-22-6.25-33.25-34.75-25-62.5-25-62.5L-104 51.5-147.5-52l-47 108.75" transform="translate(209 59)" opacity="1" style="display:block"/></g></g></mask><mask id="j" mask-type="alpha"><g clip-path="url(#d)" transform="rotate(180 209 59)" style="display:block"><g opacity=".99"><path stroke-linecap="round" fill-opacity="0" stroke="#FF7E00" stroke-width="21" d="M20.5 37S10.25 44.5-1 44.5s-22-6.25-33.25-34.75-25-62.5-25-62.5L-104 51.5-147.5-52l-47 108.75" transform="translate(209 59)" opacity="1" style="display:block"/></g></g></mask><mask id="i" mask-type="alpha"><g clip-path="url(#e)" transform="rotate(180 209 59)" style="display:block"><g opacity=".99"><path stroke-linecap="round" fill-opacity="0" stroke="#FF7E00" stroke-width="21" d="M20.5 37S10.25 44.5-1 44.5s-22-6.25-33.25-34.75-25-62.5-25-62.5L-104 51.5-147.5-52l-47 108.75" transform="translate(209 59)" opacity="1" style="display:block"/></g></g></mask><mask id="h" mask-type="alpha"><g clip-path="url(#f)" transform="rotate(180 209 59)" style="display:block"><g opacity=".99"><path stroke-linecap="round" fill-opacity="0" stroke="#FF7E00" stroke-width="21" d="M20.5 37S10.25 44.5-1 44.5s-22-6.25-33.25-34.75-25-62.5-25-62.5L-104 51.5-147.5-52l-47 108.75" transform="translate(209 59)" opacity="1" style="display:block"/></g></g></mask></defs><g clip-path="url(#g)"><g mask="url(#h)" style="display:block"><path fill="#FFF" d="M389.86 8.99a5.3 5.3 0 0 1 4.88-3.23h14.47a1.06 1.06 0 0 1 .97 1.47l-35.96 84.72a1.17 1.17 0 0 1-2.17 0l-8.16-19.22a3.24 3.24 0 0 1 0-2.57L389.86 9z"/></g><g mask="url(#i)" style="display:block"><path fill="#FFF" d="M306.76 5.76a5.3 5.3 0 0 0-4.88 3.23l-25.96 61.18a3.24 3.24 0 0 0 0 2.56l8.16 19.23a1.17 1.17 0 0 0 2.17 0L312.55 30l33.33 78.52a5.3 5.3 0 0 0 4.88 3.24h14.47a1.06 1.06 0 0 0 .97-1.48L323.2 9a5.3 5.3 0 0 0-4.88-3.23h-11.56z"/></g><g mask="url(#j)" style="display:block"><path fill="#FFF" d="M257.9 108.53a5.3 5.3 0 0 0 4.87 3.23h14.47a1.06 1.06 0 0 0 .97-1.48l-34.6-81.53a37.64 37.64 0 0 0-34.74-23 37.73 37.73 0 0 0-18.76 5 1.7 1.7 0 0 0-.72 2.12l5.78 13.64a1.7 1.7 0 0 0 2.53.73A19.71 19.71 0 0 1 227 35.8l30.88 72.74z"/></g><g mask="url(#k)" style="display:block"><path fill="#FFF" d="M159.84 8.99a5.3 5.3 0 0 0-4.88-3.23H140.5a1.06 1.06 0 0 0-.98 1.47l34.61 81.54a37.65 37.65 0 0 0 34.74 22.98c6.77 0 13.23-1.8 18.76-4.98a1.7 1.7 0 0 0 .72-2.13L222.56 91a1.7 1.7 0 0 0-2.52-.74 19.71 19.71 0 0 1-29.31-8.55L159.83 8.99z"/></g><g mask="url(#l)" style="display:block"><path fill="#FFF" d="M110.99 111.75c1.99 0 4-1.14 4.88-3.23l25.96-61.17a3.25 3.25 0 0 0 0-2.57l-8.16-19.22a1.17 1.17 0 0 0-2.17 0l-26.3 61.96L71.89 8.99A5.3 5.3 0 0 0 67 5.76H52.53a1.06 1.06 0 0 0-.97 1.47l43 101.3a5.3 5.3 0 0 0 4.87 3.23H111z"/></g><g mask="url(#m)" style="display:block"><path fill="#FFF" d="M27.88 108.52a5.3 5.3 0 0 1-4.88 3.23H8.53a1.06 1.06 0 0 1-.97-1.47l35.96-84.72a1.17 1.17 0 0 1 2.17 0l8.16 19.22a3.25 3.25 0 0 1 0 2.57l-25.97 61.17z"/></g><g mask="url(#n)" style="display:block"><g clip-path="url(#o)" transform="matrix(.87 0 0 .87 80.35 -27.74)"><g style="display:block"><path fill="#FFF" d="m244.65 95.13 1.13-.19.57-.34.16-.4v-.57l.61-.66h.57l.16-.37-.26-.68h.96l.4.32.7-.11.02-.34.43-.3.36.1-.07.6.25.21.14.2-.61.19-.41.68.04.73.82-.05-.04-.5-.3-.75.36-.14.37.05.5.09.63.4.44.35v.6l-.25.29-.55-.5-.48.11-.09.59 1.14.55.38-.25v-.57l.57-.46-.27-.68-.43-.73-1.05-.79-.25-.66.3-.25.57.61 1.27.5.5.46.45.73v.59l.44.52-.41.68.18.27 1-.18.34-.38-.23.54.34.02h.68l-.5-.4-.02-.4-.45-.45-.19-.4-.18-.26.62-.27.61.12-.14.31.37.41v-.47h.47l.16-.3.25-.25-.25-.48v-.5l.48-.34v-.38l.61-.6.48-.15.46.25.31-.03v.12l-.5.07.32.36.18.25.53-.23.52-.11-.18-.16-.39-.07v-.34l.57-.11.43-.25.57-.2v.29l-.55.25-.25.43-.26-.03.23.26.73.33.27.35.38.5v.4l-.51.21-1.02-.24-.69-.2-.64.03-.3.22-.8.4h-.54l-.37.37h-.41l-.16.05-.06.41.18.22.16.4.2.44.7-.02.37.2.63-.22.77.12.56-.05-.05 1.38-.42.63-.43.43-1.09-.24-.77.05-1.38-.22-.64-.34-.65-.14-.89.17.05 1.04-.37-.17-.84-.36-.5-.3-1.34-.28-.29-.6v-.81l-.1-.64-1.82.32-1.59-.16-1.02.54-.89.39h-.54l-.27-.2-.36-.1-.56.67-.51.5-.67.3v.9l-.54.77-.86.65-.87.93-.7 1.47.31.32.09 1.25-.4 1.3.52.69 1.17 1.41 1.13 1.03 1.02.81 1.33-.4.8.18.96-.36.68-.42 1.22.13.43.77s.77.14.82.1c.05-.03.78.65.78.65l-.48 1.2.55.95.87 1.5.34 1.24.19.7-.48.61-.27 1.33.08.67.67 1.17.54 1.2.04 1.46.63.51.1.97.5.41-.18.53.36.8 1.55-.19 1.31-.46.85-.81.62-.75 1.28-1.21.01-.84.58-.1.38-1.31-.5-.45.38-.98.9-.3 1.16-.59v-1.57l-.5-1.05v-1.4l.5-1.04.68-.94 1-1.16 1.05-1.07.9-1.35.44-1.32-.94.11-1.32.17-.75-.1-.23-.5-.4-.37-1.11-1.3-.22-.78-.3-.18-.04-.94-.5-.63-.89-1.36-.49-1.35-.1-.44.24.13.24.65.17.38.4-.2.2.28.64.72.53 1.04.2.71.07.41.5.19.54.92.46.39-.17.85.3.75.6-.12 1-.3.93-.46.95-.82.84-.02.71-.54.58-.86.84-.42.1-.68-.9-.36-.57-.4-.5.38-.98.12-.5-.4-.57-.88-.62-.61.04-.78.87-.36-.09.83.53.46.99.58.54-.24.52-.17.25.7.99.17 1.7-.08 1.11.44.48 1.12.92.41.66-.56v.68l.14 1.54.5.8.39.97.32.8.32.73.72-.2.39-.53.17.4-.27.45.07.65.47.07.45-.38.12-.36-.7-.49-.22-.6-.02-1.17.05-.6.53-.15 1.36-1.23.77-.66.08-.05v-.36l.62-.33s1 .02 1.05-.01c.05-.04.4.37.4.37l.13.79.63.32v.68l.1.48.72-.14.36-.36.27 1.06.15.9-.08.9.08.72.55.5.15.97.43.39.1.37-.43-.08-.5-.68-.57-.4-.82-.44-.13.65.34.85.99.14.49.94.63.97.7.66.58.48.17.24.37.4.67.13 2.23.22 1.07.29 1.5.06h1l.42.36-.26.33.41-.2 1.06-.86v-.27l-.85.4-.41.18-.62-.2s-.68-.08-.78-.08l-2.05-.13-.56-.33.3-.05-.03-.22h-.98l-1.15-.08-.9-.23-.24-.47.22-.87s-.76-.46-.78-.51l-.48-.82.31-.17.29.22 1.55.02.26.46.34.92 1.55.32 1.07-.5.75.25.27.3.36.02.58.48.68.17-.34-1.08.02-.64s-.51-.14-.56-.04c-.05.1-.45.36-.45.36l-.56-.19v.34l-.65-.17.34-.44-.06-.38.35-.05-.08-.56-.27-.48.25-.57.34-.23.92-.13.28-.68.42.13.32.48.74.08.4-.75-.4-.88-.58-.92-.36-.6-.82-.3.2-1.1-.25-.56-.42.02-.33 1.04.48.85.22.9.66.48v.73l-.32.2-.3.67-.4.05-.13-.3-.28.1.02.19-.25.12-.48-.38-.05-.25-.31.13-.95 1.13-.48.13-.8.5-.67.35h-.3l-1.6-.06-.47-.84-.03-.75-.66-.6-.86-.68.38-1.41.34-.36.43.67.56.35.76.16-.34.71.75-.27.67-.56.34-.2-.09-1.35-1.22-.68-.1-1.03.64-.68.84-.32.03.58-.2.29.15.37.46.12.43-.56-.28-.68.36-.33.85-.2.72-.55 1.38-1.24.99-.85.13-.79-.49-1.14-.5-1.04.64-.52.4-.35-.95-.13-.4.5-.16-.76.27-.5.82-.32.37.04-.32.5.44-.21.43-.19.3.2.48.21-.32.6.44.24.26.18-.07.79-.29.66 1.1-.56.62.1.34.34-.53.53.33.63 1.2-.94.76-.13.64-.48 1.1-.4.49-.84.1-1.13V92.4l.19-.29.53.4.3-.28.53-.22v-.53l-.53-.1-.56-.42.04-.55.47.04-.34-.58-.12-.4.43-.52.32.32-.13-.61-.34-.79V86.6l-.2-.19-.45.36.07.85v2.83l.03.17v.17l-.24.34.07.55-.22.25h-.34l.03 1.67-.29.57-.56.66-.36-.32-.27.44-.07.41-.4.08-.52-.22-.6.3-.25.25-.44-.04-.6-.08.37-.43-.22-.54-.46-.72-.15-.61 1.36-1.06.67-.32.47.1 1.54-1.8.66-.98.2-.61.07-.78.1-.92-.5-.57-.57.17-.58-.17-.54-.44 2.03-1.86.85-.58 1.07-.1 1.45-.3.84.44.75.32.63-.25.17-.1-.36-.3 1-.83 1.15-.46.22.73.5.05.55-.46.16-.46.61-.13-.15.39-.7.83-.7.36-.94 1.21-.75.41-.66 1.07.27 1.1.4.52-.02.5.7-.43.32-.8.44-.05.07-.46.56-.05-.02-.67.58-.34-.06-.5-.26-.16.27-.14-.08-.29-.36-.05.58-.78.51-.14.3.14.82-.51 1.01.42.78-.68 1.32-.9 1.22-.1.22.11-.27-.81-.48-.38h.46l.6-.1.19-.77.99.51 1 .33.53.35v-1.19l-.46-.12-.24-.44-.15-.29-3.09-1.48-1.41-.22h-.94l-.17.7-.5.03-.33-.32.64-.41-.37-.14-.89.17.04.24-.68-.04-1.5-.17-.58-.2-.28-.68-1.53-.1h-1.28l-.95-.67-.63-.42-.89-.1h-2.13l-.44.45.27.41-.71.38L299 76l-.7-.47-.46.9-.83-.66-.29-.9-1-.53h-.77l-.4.44-1.1-.29-1.84-.3-1.45.27-1.21.14-.84.15-.2-.34 1.21-.46 1.4-.85.34-.38-.4-.8-1.4-.3-.54.44-.5-.45-.76-.4-1.7.98-.87.74-1.47-.38-.75.24-1.34.4-.67.45-.46.3.53.25-.54.37-.87-.36-.77.2-.24.37.07.71.78-.03.06.7-.3-.02-.28-.4-.4-.21-1.12-.17-.65.44.3.12.28.6-.9-.31-.12-.65-.7.26.22.76.17.44.07.72 1.24.09.3.83-.2.61-.28-1.3-.68-.1-.31.48.1.65-.46.36-.95.2-.53-.12.85-.2.38-.61.05-.57-.33-.29v-.75l-.03-.85-.19-.05.3-.92-.47-.3-.34-.28-.78.65-.51.78-.36.57.13.85.92.2.04.51-.02.26-.82-.43-1.3-.6-1.19-.27-.76-.18-.44-.62-.8-.76.11-.74.75-.64 1.52-.94.92-.55 1.1-.29.8-.29.13-.35-.4-.12-.98.2-.82.2-1.64.23-.6.82-.86.8-.56.63-.65.78-.04 1.1.64.18.98.14h.48l.24.3.99.58-.04.63-.5.26-.23-.63-1.2.12-.88.32-.4-.4-1.32.69-.63.63-1-.05-.8.66-1.23.14-.1.51.39.3-.34.06-.9-.46-.37-.02.41.41.12.4-.75-.35-.39-.15-.02-.77-.63-.66 1.04.25 1.15.26.98-.38.04-.54-.97-.4-1.03-.64-.8-.05-.76-.46-.77.22-.07-.48.46.12-.07-.2-.83-.31h-.94l-.82-.1-.78.27s-1.02.3-1.07.29c-.06-.02-.45.3-.45.3l-.64.31-1 .48.6.02-.1.24-.78.92-.79 1.09-1.1.8-1.1.58-.42 1.04.3 1.09.23.56 1.14-.05.87-.73.29.76.76 1.18.75-.41.41-.65.51-.56.48-.15-.6-.46-.23-1.16.66-.7.72-.75.18-.6 1.04-.39.43.19-.66.97-.77.6-.14.6.02.88-.61.03.08.43.6-.02.88.07.53-.17.87-.38.48.24-.09.46-.76.02-1.1.3-.54-.1.02.63.63-.28.4.4-.1.52-.92-.2-.44-.21-.05.73-.26.25-.03.55-.27.17-.6-.22-.94.12-.44.1-.92-.14-1.07.4.24-.96.37.27.46-.01.1-.28v-.75l-.5-.17-.33-.32-.68.41.01.83-.17.79-.68.27-.9.73-.77.6-.34-.17.3-.7-.35-.4-.99-.59s-.37-.75-.34-.85c.04-.1-.1-.61-.1-.61l-.33-.53-.68-.3-.5.76v.46l.23.61-.54.04-.67.32-.4.72.2.44-.48.24.29.42 1.07-.15.26-.5.1.04.05-.97.26-.3.27.04.3.75-.1.48-.29.4.2.28-.25.41-.12.32.5-.22.53.02.06-.24 1.15-.08.34-.14.29.14v.42l-.73.22-.7.33-.84.05-.22.2 1 .72.3.83v.79l-.8.01-1.54-.03h-.51l-.41.68.4.97-.38.45.29.68.08.44.72-.14.25.2.3.15.2-.2z"/><path fill="#FFF" d="m263.53 116.71.44 1.06-.44.61-.17 1.02.3.89.85-.2.62-1.03.82-1.63v-1.3l-.2-1.5-.86 1.4-.4.27-.93-.03-.03.44zM304.97 112.96l-1.23-.68-.55-.78s-.81-.38-.95-.38c-.14 0-2.18-.95-2.18-.95l-.24.58-.78-.1-.31-.48-.78-.34-.17.3.17.04.47.75.2.61 1.3.27.75.96-.4.27.7.24.83.2.3.38.65-.72h.75l.61.72h1.54l-.68-.89zM299.85 115.69l1.2 1.26h.66l.3-1.64.3-1.05.44.92.48.61.37.72.79 1.26.82.88 1.02 1.16.2 1.02v1.64l-.3 1.4-.72.71-.27.96-.89-.2-.34.74-.77-.34-1.1.1-.75-.68-.62-1.63-.64.23-.41.41-.92-1.3-1.23-.5-.61.07-1.2.57-.4.75-.9.2-.7-.16-1.4.61-.65-.68v-.44l-.24-.68-.3-1.2-.25-1.05.34-1.5-.03-.24 1.7-.34.58-.65.86.1.03-.58v-.61l1.06-.38.44-.5.65-.04.47.48.31-.45.2-.81.86-.17 1.12-.41h.34l.38.75-.1.37-.18.3zM303.2 126.6l.81.6.58-.3v1.6h-1.05l-.65-1.33.3-.58zM312.4 128.5l-.82.34.4.51.42.31h.95l.24-.99.37-.44.51-.92h.38l.58-.41.48-1.1.3-.16-.47-.38s-.28.04-.31 0c-.04-.03-.55-1.02-.55-1.02l-.98-.17.81.89.31.92-.24.71h-.4l-.65.65-.48.68-.58.41-.27.17zM219.56 133.34l1.37 1.02-.68.75-1.3-.47-1.5-1.3-.68-.89v-1.77l.4-1.5-.4-2.04.95-1.5.14-1.64.68-1.36.3-1.64.38-1.09v-1.09l-.37-.81-.85-1.23-.89-1.3-1.7-1.3-.48-1.51-.43-.75.48-1.57s.79-1.11.72-1.14c-.07-.02.52-1.1.52-1.1v-.78l-.56-.7-.5.13-.03.34-.47.16-.7-.39-.62-.88-.16-.34-.68-.69-1.14-.36-1.09-.77-.59-.37-.84.2-.84-.38h-1.27l-1.27-1-.23-.86-1.02-1.3-1.05-.84-.2-.95-.82-.95-.3-.2v.88l.5.47.89 1.25.23.73.04.25-.36-.11-.68-.55-.14-.63-.75-.69-.16-.54-.5-.86-.18-.73-.9-.96-.4.25s-.81-.95-.79-1.02c.02-.07-.45-.9-.45-.9l-.87-1.32.39-1.07.38-1.43-.36-.87-.86-.63-.55-.87-.18-.72-.95-.6-.87-.45-.31-.86-1.8-1.3-.9-.59-1.28-.36-1.73-.1-.97.35-.87.73-.45.86-.89.57-.77.4-1.66.44-1.27.59-1.16.43.3-.7 1.29-.53 1.55-.59 1.29-.88.05-.64-1.2-.11-.9-.57-.95-.55-.04-.77.93-.43h.63l.75-.57-.52-.8-1.11.57-1.2-.56.65-.53s.82-.04.89 0c.07.05.82.2.82.2l.52-.47-1.34-.3-1.43-.38-.1-.55.8-.15 1.52-1.07 1.03-.2 1.54-.1 1.05.32 3.86.64 1.57.3.93.2 1.38-.7 1.05-.1.66-.66 1.16.75 1.45-.13 2.73 1.22.84.34.63-.31.05-.32-1.11.02-.7-.7-.8-.16 1.65-.25.37-.55h-.87l-.95.1-.8-.53.28-.77-.5-.28-.75.94-.55.31-1.13-.72.11-1.12.4-.81h1.49l.75.27.65.02.14.73-.48.27-.31.07.31.2.55-.38.57-.16.34.48H204l.62-.7.77-.37-.52-.89-.94-.11-1.34.48-.56-.25-.12-.23h-.68l-.4-.48-.5.14-.28.18-.66-.32-.73-.2-.38-.16.93-.25.48-.43 1.06-.34.32.18-.02.38.7.16.5.23.68.45.82.14-.16-.39.05-.4-.18-.41-.57.2s-.89-.39-.89-.32-.38-.22-.38-.22l.8-.53.29-.43h.54l.7.23-.13.43-.39.3.19.18.09.22.22.19.6.4.7.07.09.37-.14.5.32.68.32.86-.43.52.25.53.16.52.2.34.43.43.53.25s.04.32-.03.34c-.07.02-.77.46-.77.46l-.07.75 1.02-.12 1.14.1v-.64l-.68-.78.77-.27.7.7.1.78-.03.66.48-.7.18-.78-.38-.52s-.57-.3-.6-.37c-.02-.06.3-.93.3-.93s-.27-.18-.34-.16c-.07.03-.75.53-.75.53l-.54-.1-.85-1.1.3-.35.5.1-.25-.4.36-.31.46.09.45-.14-.23.96.66.02.28-.1.18-.3-.14-.5.98-.4.7.21s.55-.05.48.11c-.07.16-.73.64-.73.64s-.8.3-.66.52c.14.23.23.6.23.6l.16.65.55.36-.07.57.75.84.34.57.8.43.2-1.2.3-.75-.71-.11-.77-.55-.19-1.23.5-.59.57-.61s.62.07.55.14c-.07.06-.7.75-.7.75l.43.75.4.22.1-.9.13-.78.77-.23.37-.63-.96-.1-1.04.05h-1.55l-.34-.34-.61-.07-.46.37-.77-.5-.73-.14-.72.5-.98-.66-.75-.34-.11-.43.97.25.64-.23.66.2.52.35.46-.12.45.34.16-.43-.68-.45.43-.43-.52-.39-.8-.48-.34.25.1.68-.71-.38-.34.3-.34.02-.1-.5-.18-.14-.66-.02v-.6l-.2-.33h.82l.59.22.32.23.59.05 1-.19.38.44.5.13.66.48.32.09c.07.02-.36.45-.36.45l-.43-.25-.1.28.4.13.4.12.75.02.45-.1.73-.35.34-.62.46.46.56-.43-.22-.37-1.23-.68-.75.52-.95.1-1-.19.45-.4.41.04-.32-.64h-.3l-.33.23-.4-.48.74-.72.56-.4 1.03.53.22.18.84.43.75.44.57.52-.18-.41-.7-.52.34-.39.54.23 1.05.09.52-.3.27-.36-1.38.2-1.03-.06-1.45-.41-.52-.66.11-.3 1.07-.38.73-.1 1.04-.45.77-.36.78-.14 1.47.16 1.48-.16 1.23.41.63-.04.66.25.52.06.73.32h.41l-.75.57.6-.05.6-.3 1.25-.2 1.05-.04.66.25.82-.6-.12-.47.93-.16 1.55-.27.13-.18h1.32l1.75-.34.8.2 1.22-.2.82.38 1.82.41.3.34-.48.12-.55.59.73-.18.66.02v.66l-1.12.54v1.14l.55-.55.45-.68.91-.18 2.05-.14.57.44-.44.2-1.4.5-.53 1.11.16.62-.36.54-.34.98.59.18-.25.75-.66.7.5.82-1.02 1.16.4 1-.13.55-.86.36.77.64-.5.5-1.7-.3s-1.1.45-1.05.55c.05.09-.93 1.29-.98 1.22-.04-.07-1.34.55-1.34.55l-.72 1.36-1.55 1.1-1.66-.17-.8-.52-1.33-1.11-.07-1.12-.36-1.22.09-.69.6-.2h.5l.03-.7-.38-.39-.53.7-.66-.25-.15-.47.34-.16v-.6l-.55-.4-.68-1.14.11-.8-.7-.45-.39-.86-.82-.14-1.1.16-1.19-.68-.84.25-.64-1 .03-.93 1.09.32 1.15-.3-.22-.59.75-.39-.5-.22-1-.23.66-.52 1.02.07h.4l.35-.66-.52-.12-.69.14-.18.36-.88-.02-.3.52-1.3.8-.95.54-.68 1.14-.8-.02-.24.56.43.32-.41.84-1.11-.56s-.9-.07-.96 0c-.07.06-2.07.38-2.07.38l-.25.07.3.16.77-.1.91.19 1-.1.68.33.48.07-.05.31-.7.16-.16.66.75.16 1 .14.27.5.89.34 1.04 1.13.93.53.9.84-.21.52.95.23.55.59.68.04-.03.75-1.06.7.36.32-.14.14-.8-.66-.01-.52-.41-.3-.23.53.5.45.32.32.47.3.07.47-.25-.02.2.3-.24.15-.5-.31-.55-.19-.28-.38-.24-.32.11.93s.7.14.78.1c.06-.05.36.26.36.26l-.07.16-1.23-.04-.4-.37-.62-.65-1.22-.23-.94-.07-.66-.61.4-.07.8.13.37-.31.64-.05-.07-.7.57-.43-.82-1-.43.3-.64-.87-.47-.2-.87.27-.57-.25s-.18.13-.18.22c0 .1.6.5.6.5l-.57.34.54.46-.23.59-.68.23-.3.6-.56-.38.02.62.75.16.52.02.3.38.43.3-.52.2-.48.2-.09.28-.6-.13.15-.41.47-.12-.07-.25-.43-.07-.3.35-.24.15-.41-.25-.07-.72.2-.6-.22-.06-.3.61-.59.8-.75.18-.66.84s-.5.04-.56.16c-.07.11-.25.93-.25.93l.15.48.57.16.05 1.04.42-.02.78.4 1.18.14.66.44.93.06.05 1.32.64.32.47.43.23-.32-.02-.77-.3-.82.75-.11.25-.48.46-.77-.37-.5-1.11-.61 1-1.32-.16-.75.75.2.64.14h.22l.43.7 1.14.41.39.66.56.39.6-.73.31-.54.46.54.57 1.16.65 1.25.89.66.9.63.26.8-.14 1.04.82.28.05.9-.87-.04-.97-.11h-.78l.73-1.14.5-.9-.73.04-.63.45-1.66.02-1.07.07-.57.7.41.19.6-.36.6.47.03.93.38.3.91-.23.34.07.19.4-1.07.17-.16.25-1.2.8-.2-.8.56-.34-.3-.2-1.06.65-1.46 1 .61.93-1.2.39-1.16.84.16.61-.18.5-.66.53-1.14.95.07 1.02.39.75-.1.68h-.58l-.41-.77.09-.73-.52-.34-1.05.18-.86-.31-.92.16-1.13.2-.54.64-.84 1.11.07 1.52.31 1 1.05.36.82-.45.66-.39.18-.22.93.25.54-.37 1.16-.7.7.25.9-.07.86.32 1.27.45.57.37.77.16.86.22-.09.18-.18.19-.9.04-1.03-.52-.46.32-.59-.41-.95-.41-.34-.48-1.02-.02-.39-.39-.52.53-.39.3-.61.42-.5.82.13.64 1.89-.03.1 1.05-.12 1.07.27.32.84.2h.5l.66.07.82-.96 1.02-.2.8-.11.81.63 1 .14.8-.02 1 .81.9.41 1.19 1 .7-.43.8.52.66.8.52.8 1.07.2 1.54.95.64.18.95.69.93.8.2-.49.3.48-.07 1.02-.63.96-.62.7-.24 1.25-.37.73-.36.9-.89.73.07.6-1.34.15-1.18.96.13.86-.56.57-.84 1.43-.6.36-.81.6-.87-.28.28.5s.43.25.5.27c.06.03-.44.62-.44.62l-1.04.82-.66-.03-.43.62-.3.7-.84-.57.2.66.23.1.14.22-.4.36-.03.34-.82.44-.04.43.47.2h.28l.25.52-.82.69-.77.68-.03.52.32.4.02.44-.16.25z"/><path fill="#FFF" d="m237.39 79.87-.45.3 1.03.28-.82.75-.82-.66v.93l1.64-.2.58.2h1.19v-.37l.99.37.34-.58.15-.61-.73-.58-.34-.4-.27.67-.86-.37-.44-.3h-.65l-.4.37-.14.2z"/></g></g></g></g></svg>