<svg width="200" height="200" viewBox="0 0 200 200" fill="none" xmlns="http://www.w3.org/2000/svg">
<g clip-path="url(#clip0_5_56)">
<mask id="mask0_5_56" style="mask-type:luminance" maskUnits="userSpaceOnUse" x="0" y="72" width="200" height="57">
<path d="M0 72H200V128.459H0V72Z" fill="white"/>
</mask>
<g mask="url(#mask0_5_56)">
<mask id="mask1_5_56" style="mask-type:alpha" maskUnits="userSpaceOnUse" x="79" y="72" width="121" height="57">
<mask id="mask2_5_56" style="mask-type:luminance" maskUnits="userSpaceOnUse" x="0" y="72" width="200" height="57">
<path d="M200 128.459L1.90735e-06 128.459V72L200 72V128.459Z" fill="white"/>
</mask>
<g mask="url(#mask2_5_56)">
<g opacity="0.99">
<path d="M90.1914 82.5263C90.1914 82.5263 95.0957 78.9378 100.478 78.9378C105.861 78.9378 111.005 81.9282 116.388 95.5646C121.77 109.201 128.349 125.469 128.349 125.469L149.761 75.5885L170.574 125.11L193.062 73.0766" stroke="#FF7E00" stroke-width="21" stroke-linecap="round"/>
</g>
</g>
</mask>
<g mask="url(#mask1_5_56)">
<path d="M186.536 76.3014C186.73 75.843 187.055 75.4521 187.471 75.1772C187.886 74.9024 188.373 74.7559 188.871 74.756H195.794C195.878 74.7566 195.959 74.7777 196.033 74.8174C196.106 74.8571 196.168 74.9143 196.214 74.9838C196.26 75.0533 196.288 75.1331 196.296 75.216C196.303 75.299 196.291 75.3825 196.258 75.4593L179.053 115.995C179.011 116.099 178.939 116.187 178.847 116.25C178.754 116.312 178.645 116.346 178.533 116.346C178.422 116.346 178.313 116.312 178.22 116.25C178.128 116.187 178.056 116.099 178.014 115.995L174.11 106.799C174.026 106.605 173.983 106.396 173.983 106.184C173.983 105.973 174.026 105.764 174.11 105.569L186.536 76.3062V76.3014Z" fill="white"/>
</g>
<mask id="mask3_5_56" style="mask-type:alpha" maskUnits="userSpaceOnUse" x="79" y="72" width="121" height="57">
<mask id="mask4_5_56" style="mask-type:luminance" maskUnits="userSpaceOnUse" x="0" y="72" width="200" height="57">
<path d="M200 128.459L1.90735e-06 128.459V72L200 72V128.459Z" fill="white"/>
</mask>
<g mask="url(#mask4_5_56)">
<g opacity="0.99">
<path d="M90.1914 82.5263C90.1914 82.5263 95.0957 78.9378 100.478 78.9378C105.861 78.9378 111.005 81.9282 116.388 95.5646C121.77 109.201 128.349 125.469 128.349 125.469L149.761 75.5885L170.574 125.11L193.062 73.0766" stroke="#FF7E00" stroke-width="21" stroke-linecap="round"/>
</g>
</g>
</mask>
<g mask="url(#mask3_5_56)">
<path d="M146.775 74.756C146.277 74.7559 145.79 74.9024 145.375 75.1772C144.96 75.4521 144.635 75.843 144.44 76.3014L132.019 105.574C131.936 105.768 131.893 105.976 131.893 106.187C131.893 106.397 131.936 106.606 132.019 106.799L135.923 116C135.965 116.103 136.037 116.192 136.129 116.255C136.222 116.317 136.331 116.35 136.443 116.35C136.554 116.35 136.663 116.317 136.756 116.255C136.848 116.192 136.92 116.103 136.962 116L149.545 86.3541L165.493 123.923C165.687 124.383 166.011 124.775 166.427 125.05C166.842 125.326 167.329 125.473 167.828 125.474H174.751C174.835 125.473 174.918 125.452 174.991 125.412C175.065 125.372 175.128 125.315 175.174 125.245C175.22 125.174 175.248 125.094 175.255 125.01C175.262 124.927 175.249 124.843 175.215 124.766L154.641 76.3062C154.447 75.8478 154.122 75.4568 153.706 75.182C153.291 74.9072 152.804 74.7607 152.306 74.7608H146.775V74.756Z" fill="white"/>
</g>
<mask id="mask5_5_56" style="mask-type:alpha" maskUnits="userSpaceOnUse" x="79" y="72" width="121" height="57">
<mask id="mask6_5_56" style="mask-type:luminance" maskUnits="userSpaceOnUse" x="0" y="72" width="200" height="57">
<path d="M200 128.459L1.90735e-06 128.459V72L200 72V128.459Z" fill="white"/>
</mask>
<g mask="url(#mask6_5_56)">
<g opacity="0.99">
<path d="M90.1914 82.5263C90.1914 82.5263 95.0957 78.9378 100.478 78.9378C105.861 78.9378 111.005 81.9282 116.388 95.5646C121.77 109.201 128.349 125.469 128.349 125.469L149.761 75.5885L170.574 125.11L193.062 73.0766" stroke="#FF7E00" stroke-width="21" stroke-linecap="round"/>
</g>
</g>
</mask>
<g mask="url(#mask5_5_56)">
<path d="M123.397 123.928C123.591 124.386 123.916 124.776 124.33 125.051C124.744 125.326 125.23 125.473 125.727 125.474H132.651C132.735 125.473 132.817 125.452 132.891 125.412C132.965 125.372 133.027 125.315 133.073 125.245C133.119 125.174 133.147 125.094 133.154 125.01C133.162 124.927 133.148 124.843 133.115 124.766L116.56 85.756C115.18 82.4889 112.867 79.7017 109.91 77.744C106.953 75.7863 103.484 74.7452 99.9378 74.7512C96.7883 74.752 93.6938 75.5767 90.9617 77.1435C90.7912 77.2422 90.6623 77.3994 90.5989 77.586C90.5355 77.7725 90.5421 77.9758 90.6172 78.1579L93.3828 84.6842C93.4302 84.7951 93.5016 84.894 93.592 84.9739C93.6823 85.0538 93.7893 85.1125 93.9052 85.146C94.0211 85.1794 94.1429 85.1866 94.2619 85.1672C94.3809 85.1477 94.4941 85.1021 94.5933 85.0335C95.7458 84.2426 97.0597 83.7177 98.44 83.497C99.8203 83.2762 101.232 83.365 102.574 83.757C103.916 84.149 105.154 84.8343 106.198 85.7634C107.242 86.6925 108.067 87.8422 108.612 89.1292L123.388 123.933L123.397 123.928Z" fill="white"/>
</g>
<mask id="mask7_5_56" style="mask-type:alpha" maskUnits="userSpaceOnUse" x="0" y="72" width="121" height="57">
<mask id="mask8_5_56" style="mask-type:luminance" maskUnits="userSpaceOnUse" x="0" y="72" width="200" height="57">
<path d="M0 72H200V128.459H0V72Z" fill="white"/>
</mask>
<g mask="url(#mask8_5_56)">
<g opacity="0.99">
<path d="M109.809 117.933C109.809 117.933 104.904 121.522 99.5215 121.522C94.1388 121.522 88.9952 118.531 83.6124 104.895C78.2297 91.2584 71.6507 74.9904 71.6507 74.9904L50.2392 124.871L29.4258 75.3493L6.93781 127.383" stroke="#FF7E00" stroke-width="21" stroke-linecap="round"/>
</g>
</g>
</mask>
<g mask="url(#mask7_5_56)">
<path d="M76.4785 76.3014C76.284 75.843 75.9589 75.4521 75.5436 75.1772C75.1284 74.9024 74.6415 74.7559 74.1435 74.756H67.2249C67.1412 74.7558 67.0587 74.7763 66.9849 74.8157C66.911 74.8551 66.8481 74.9122 66.8017 74.9818C66.7552 75.0515 66.7268 75.1315 66.7188 75.2148C66.7108 75.2982 66.7236 75.3821 66.756 75.4593L83.3158 114.474C84.6971 117.739 87.011 120.523 89.9678 122.479C92.9246 124.435 96.3927 125.475 99.9378 125.469C103.177 125.469 106.268 124.608 108.914 123.086C109.086 122.987 109.215 122.829 109.279 122.642C109.342 122.454 109.335 122.25 109.258 122.067L106.488 115.541C106.441 115.43 106.37 115.331 106.28 115.252C106.19 115.172 106.084 115.113 105.969 115.079C105.854 115.045 105.732 115.037 105.613 115.056C105.495 115.074 105.382 115.119 105.282 115.187C104.13 115.979 102.816 116.504 101.435 116.726C100.055 116.948 98.6422 116.859 97.2999 116.468C95.9576 116.076 94.7192 115.391 93.6743 114.462C92.6294 113.533 91.8042 112.383 91.2584 111.096L76.4737 76.3014H76.4785Z" fill="white"/>
</g>
<mask id="mask9_5_56" style="mask-type:alpha" maskUnits="userSpaceOnUse" x="0" y="72" width="121" height="57">
<mask id="mask10_5_56" style="mask-type:luminance" maskUnits="userSpaceOnUse" x="0" y="72" width="200" height="57">
<path d="M0 72H200V128.459H0V72Z" fill="white"/>
</mask>
<g mask="url(#mask10_5_56)">
<g opacity="0.99">
<path d="M109.809 117.933C109.809 117.933 104.904 121.522 99.5215 121.522C94.1388 121.522 88.9952 118.531 83.6124 104.895C78.2297 91.2584 71.6507 74.9904 71.6507 74.9904L50.2392 124.871L29.4258 75.3493L6.93781 127.383" stroke="#FF7E00" stroke-width="21" stroke-linecap="round"/>
</g>
</g>
</mask>
<g mask="url(#mask9_5_56)">
<path d="M53.1053 125.469C54.0574 125.469 55.0191 124.923 55.4402 123.923L67.8612 94.6555C67.9448 94.4613 67.9879 94.2521 67.9879 94.0407C67.9879 93.8292 67.9448 93.62 67.8612 93.4258L63.9569 84.2297C63.9152 84.1262 63.8434 84.0375 63.7509 83.9751C63.6584 83.9127 63.5494 83.8793 63.4378 83.8793C63.3262 83.8793 63.2172 83.9127 63.1246 83.9751C63.0321 84.0375 62.9604 84.1262 62.9187 84.2297L50.3349 113.876L34.3971 76.3014C34.2023 75.8423 33.8765 75.4508 33.4603 75.1759C33.0441 74.901 32.5562 74.755 32.0574 74.756H25.134C25.0507 74.7566 24.9688 74.7777 24.8956 74.8174C24.8224 74.8571 24.7601 74.9143 24.7142 74.9838C24.6684 75.0533 24.6403 75.1331 24.6326 75.216C24.6248 75.299 24.6376 75.3825 24.6699 75.4593L45.244 123.928C45.4382 124.386 45.7626 124.776 46.1768 125.051C46.5911 125.326 47.077 125.473 47.5742 125.474H53.11L53.1053 125.469Z" fill="white"/>
</g>
<mask id="mask11_5_56" style="mask-type:alpha" maskUnits="userSpaceOnUse" x="0" y="72" width="121" height="57">
<mask id="mask12_5_56" style="mask-type:luminance" maskUnits="userSpaceOnUse" x="0" y="72" width="200" height="57">
<path d="M0 72H200V128.459H0V72Z" fill="white"/>
</mask>
<g mask="url(#mask12_5_56)">
<g opacity="0.99">
<path d="M109.809 117.933C109.809 117.933 104.904 121.522 99.5215 121.522C94.1388 121.522 88.9952 118.531 83.6124 104.895C78.2297 91.2584 71.6507 74.9904 71.6507 74.9904L50.2392 124.871L29.4258 75.3493L6.93781 127.383" stroke="#FF7E00" stroke-width="21" stroke-linecap="round"/>
</g>
</g>
</mask>
<g mask="url(#mask11_5_56)">
<path d="M13.3397 123.923C13.1453 124.382 12.8201 124.773 12.4049 125.048C11.9897 125.322 11.5027 125.469 11.0048 125.469H4.08135C3.99806 125.468 3.9162 125.447 3.84299 125.407C3.76978 125.368 3.70749 125.311 3.66161 125.241C3.61574 125.172 3.58769 125.092 3.57995 125.009C3.57221 124.926 3.58502 124.842 3.61724 124.766L20.823 84.2297C20.8647 84.1262 20.9365 84.0375 21.029 83.9751C21.1215 83.9127 21.2305 83.8793 21.3421 83.8793C21.4537 83.8793 21.5628 83.9127 21.6553 83.9751C21.7478 84.0375 21.8195 84.1262 21.8613 84.2297L25.7656 93.4258C25.8492 93.62 25.8923 93.8292 25.8923 94.0407C25.8923 94.2521 25.8492 94.4613 25.7656 94.6555L13.3397 123.923Z" fill="white"/>
</g>
<mask id="mask13_5_56" style="mask-type:alpha" maskUnits="userSpaceOnUse" x="78" y="76" width="40" height="41">
<path d="M117.914 110.067L103.445 116.23C102.305 116.709 101.082 116.959 99.8459 116.965C98.6095 116.971 97.384 116.734 96.2394 116.267C95.0948 115.799 94.0535 115.111 93.1751 114.241C92.2966 113.371 91.5981 112.336 91.1196 111.196L78.7895 82.6316L92.9043 76.7081C97.6938 74.6986 106.923 83.8852 108.933 88.6794L117.914 110.067Z" fill="black"/>
</mask>
<g mask="url(#mask13_5_56)">
<mask id="mask14_5_56" style="mask-type:luminance" maskUnits="userSpaceOnUse" x="38" y="58" width="209" height="84">
<path d="M38.445 58.7273H246.579V141.981H38.445V58.7273Z" fill="white"/>
</mask>
<g mask="url(#mask14_5_56)">
<path d="M148.144 107.31L148.327 107.751L148.144 108.005L148.073 108.43L148.198 108.8L148.552 108.717L148.81 108.288L149.151 107.61V107.068L149.068 106.444L148.71 107.027L148.544 107.139L148.157 107.127L148.144 107.31ZM165.394 105.749L164.882 105.466L164.653 105.141C164.653 105.141 164.316 104.983 164.258 104.983C164.2 104.983 163.35 104.588 163.35 104.588L163.25 104.829L162.926 104.787L162.797 104.588L162.472 104.446L162.401 104.571L162.472 104.588L162.668 104.9L162.751 105.154L163.292 105.266L163.604 105.666L163.438 105.778L163.729 105.878L164.075 105.961L164.2 106.119L164.47 105.82H164.782L165.036 106.119H165.677L165.394 105.749ZM163.263 106.885L163.762 107.41H164.037L164.162 106.727L164.287 106.29L164.47 106.673L164.67 106.927L164.824 107.227L165.153 107.751L165.494 108.117L165.919 108.6L166.002 109.025V109.708L165.877 110.29L165.577 110.586L165.465 110.986L165.095 110.902L164.953 111.21L164.632 111.069L164.175 111.11L163.862 110.827L163.604 110.149L163.338 110.245L163.167 110.415L162.784 109.874L162.272 109.666L162.018 109.695L161.519 109.932L161.352 110.245L160.978 110.328L160.686 110.261L160.103 110.515L159.833 110.232V110.049L159.733 109.766L159.608 109.266L159.504 108.829L159.646 108.205L159.633 108.105L160.341 107.963L160.582 107.693L160.94 107.734L160.953 107.493V107.239L161.394 107.081L161.577 106.873L161.848 106.856L162.043 107.056L162.172 106.869L162.256 106.531L162.614 106.461L163.08 106.29H163.221L163.38 106.602L163.338 106.756L163.263 106.881V106.885ZM164.657 111.427L164.995 111.677L165.236 111.552V112.218H164.799L164.528 111.664L164.653 111.423L164.657 111.427ZM168.487 112.218L168.146 112.359L168.312 112.572L168.487 112.701H168.883L168.982 112.288L169.136 112.105L169.349 111.722H169.507L169.748 111.552L169.948 111.094L170.073 111.027L169.877 110.869C169.877 110.869 169.761 110.886 169.748 110.869C169.732 110.856 169.519 110.444 169.519 110.444L169.112 110.374L169.449 110.744L169.578 111.127L169.478 111.423H169.311L169.041 111.693L168.841 111.976L168.6 112.147L168.487 112.218ZM129.841 114.232L130.411 114.657L130.128 114.969L129.587 114.774L128.962 114.232L128.679 113.862V113.125L128.846 112.501L128.679 111.652L129.075 111.027L129.133 110.344L129.416 109.778L129.541 109.096L129.699 108.642V108.188L129.545 107.851L129.191 107.339L128.821 106.798L128.113 106.257L127.913 105.628L127.734 105.316L127.934 104.662C127.934 104.662 128.263 104.2 128.234 104.188C128.205 104.18 128.45 103.73 128.45 103.73V103.405L128.217 103.114L128.009 103.168L127.997 103.31L127.801 103.376L127.51 103.214L127.252 102.848L127.185 102.706L126.902 102.419L126.427 102.269L125.974 101.948L125.728 101.794L125.378 101.878L125.029 101.719H124.5L123.971 101.303L123.876 100.945L123.451 100.404L123.014 100.054L122.931 99.6589L122.589 99.2634L122.465 99.1802V99.5465L122.673 99.7421L123.043 100.262L123.139 100.566L123.156 100.67L123.006 100.625L122.723 100.396L122.664 100.133L122.352 99.8462L122.286 99.6214L122.077 99.2634L122.002 98.9596L121.628 98.5599L121.461 98.664C121.461 98.664 121.124 98.2686 121.132 98.2394C121.141 98.2103 120.945 97.8648 120.945 97.8648L120.583 97.3153L120.745 96.8699L120.904 96.2746L120.754 95.9125L120.396 95.6502L120.167 95.2881L120.092 94.9884L119.696 94.7386L119.334 94.5513L119.205 94.1933L118.456 93.6521L118.081 93.4065L117.548 93.2567L116.828 93.2151L116.424 93.3608L116.062 93.6646L115.875 94.0226L115.505 94.2599L115.184 94.4264L114.493 94.6096L113.964 94.8552L113.481 95.0342L113.606 94.7428L114.143 94.5221L114.789 94.2765L115.326 93.9102L115.346 93.6438L114.847 93.598L114.472 93.3608L114.077 93.1318L114.06 92.8113L114.447 92.6323H114.709L115.022 92.395L114.805 92.062L114.343 92.2993L113.844 92.0662L114.114 91.8455C114.114 91.8455 114.456 91.8289 114.485 91.8455C114.514 91.8664 114.826 91.9288 114.826 91.9288L115.042 91.7332L114.485 91.6083L113.889 91.4501L113.848 91.2211L114.181 91.1587L114.814 90.7133L115.242 90.63L115.883 90.5884L116.32 90.7216L117.927 90.988L118.581 91.1129L118.968 91.1962L119.542 90.9048L119.979 90.8631L120.254 90.5884L120.737 90.9006L121.341 90.8465L122.477 91.3543L122.827 91.4959L123.089 91.3668L123.11 91.2336L122.648 91.242L122.356 90.9506L122.023 90.884L122.71 90.7799L122.864 90.5509H122.502L122.107 90.5926L121.774 90.372L121.89 90.0514L121.682 89.9349L121.37 90.3262L121.141 90.4552L120.67 90.1555L120.716 89.6893L120.883 89.3521H121.503L121.815 89.4645L122.086 89.4728L122.144 89.7767L121.944 89.8891L121.815 89.9182L121.944 90.0015L122.173 89.8433L122.41 89.7767L122.552 89.9765H123.364L123.622 89.6851L123.942 89.5311L123.726 89.1606L123.335 89.1148L122.777 89.3146L122.544 89.2106L122.494 89.1148H122.211L122.044 88.915L121.836 88.9733L121.719 89.0482L121.445 88.915L121.141 88.8318L120.983 88.7652L121.37 88.6611L121.57 88.4821L122.011 88.3406L122.144 88.4155L122.136 88.5737L122.427 88.6403L122.635 88.736L122.918 88.9233L123.26 88.9816L123.193 88.8193L123.214 88.6528L123.139 88.4821L122.902 88.5654C122.902 88.5654 122.531 88.403 122.531 88.4321C122.531 88.4613 122.373 88.3406 122.373 88.3406L122.706 88.1199L122.827 87.9409H123.051L123.343 88.0367L123.289 88.2157L123.126 88.3406L123.205 88.4155L123.243 88.5071L123.335 88.5862L123.584 88.7527L123.876 88.7818L123.913 88.9358L123.855 89.144L123.988 89.427L124.121 89.785L123.942 90.0015L124.046 90.2221L124.113 90.4386L124.196 90.5801L124.375 90.7591L124.596 90.8631C124.596 90.8631 124.612 90.9964 124.583 91.0047C124.554 91.013 124.263 91.1962 124.263 91.1962L124.234 91.5084L124.658 91.4584L125.133 91.5V91.2336L124.85 90.9089L125.17 90.7965L125.462 91.0879L125.503 91.4126L125.491 91.6874L125.691 91.396L125.766 91.0713L125.607 90.8548C125.607 90.8548 125.37 90.7299 125.358 90.7008C125.349 90.6758 125.482 90.3137 125.482 90.3137C125.482 90.3137 125.37 90.2387 125.341 90.2471C125.312 90.2596 125.029 90.4677 125.029 90.4677L124.804 90.4261L124.45 89.9682L124.575 89.8225L124.783 89.8641L124.679 89.6976L124.829 89.5686L125.02 89.606L125.208 89.5477L125.112 89.9474L125.387 89.9557L125.503 89.9141L125.578 89.7892L125.52 89.581L125.928 89.4145L126.219 89.502C126.219 89.502 126.448 89.4811 126.419 89.5477C126.39 89.6143 126.115 89.8142 126.115 89.8142C126.115 89.8142 125.782 89.939 125.84 90.0306C125.899 90.1264 125.936 90.2804 125.936 90.2804L126.003 90.5509L126.232 90.7008L126.203 90.9381L126.515 91.2877L126.656 91.525L126.989 91.704L127.073 91.2045L127.198 90.8923L126.902 90.8465L126.581 90.6176L126.502 90.1055L126.71 89.8599L126.948 89.606C126.948 89.606 127.206 89.6352 127.177 89.6643C127.148 89.6893 126.885 89.9765 126.885 89.9765L127.064 90.2887L127.231 90.3803L127.272 90.0056L127.327 89.6809L127.647 89.5852L127.801 89.323L127.401 89.2813L126.969 89.3021H126.323L126.182 89.1606L125.928 89.1315L125.736 89.2855L125.416 89.0774L125.112 89.0191L124.812 89.2272L124.404 88.9525L124.092 88.8109L124.046 88.632L124.45 88.736L124.717 88.6403L124.991 88.7235L125.208 88.8692L125.399 88.8193L125.587 88.9608L125.653 88.7818L125.37 88.5945L125.549 88.4155L125.333 88.2532L125 88.0533L124.858 88.1574L124.9 88.4405L124.604 88.2823L124.463 88.4072L124.321 88.4155L124.279 88.2074L124.205 88.1491L123.93 88.1408V87.891L123.847 87.7536H124.188L124.433 87.8452L124.567 87.9409L124.812 87.9618L125.229 87.8827L125.387 88.0658L125.595 88.1199L125.87 88.3198L126.003 88.3572C126.032 88.3655 125.853 88.5445 125.853 88.5445L125.674 88.4405L125.632 88.557L125.799 88.6111L125.965 88.6611L126.278 88.6694L126.465 88.6278L126.769 88.4821L126.91 88.224L127.102 88.4155L127.335 88.2365L127.243 88.0825L126.731 87.7994L126.419 88.0159L126.024 88.0575L125.607 87.9784L125.795 87.8119L125.965 87.8286L125.832 87.5621H125.707L125.57 87.6579L125.403 87.4581L125.711 87.1584L125.945 86.9919L126.373 87.2125L126.465 87.2874L126.815 87.4664L127.127 87.6496L127.364 87.866L127.289 87.6953L126.998 87.4789L127.139 87.3165L127.364 87.4123L127.801 87.4498L128.018 87.3249L128.13 87.175L127.555 87.2583L127.127 87.2333L126.523 87.0626L126.307 86.7879L126.352 86.663L126.798 86.5048L127.102 86.4632L127.535 86.2759L127.855 86.126L128.18 86.0677L128.792 86.1343L129.408 86.0677L129.92 86.2384L130.182 86.2218L130.457 86.3258L130.673 86.3508L130.977 86.484H131.148L130.836 86.7213L131.085 86.7005L131.335 86.5756L131.856 86.4923L132.293 86.4757L132.567 86.5798L132.909 86.33L132.859 86.1343L133.246 86.0677L133.891 85.9554L133.945 85.8804H134.495L135.223 85.7389L135.556 85.8221L136.064 85.7389L136.405 85.8971L137.163 86.0677L137.288 86.2093L137.088 86.2592L136.859 86.5048L137.163 86.4299L137.438 86.4382V86.713L136.971 86.9377V87.4123L137.2 87.1833L137.388 86.9003L137.767 86.8254L138.62 86.7671L138.857 86.9502L138.674 87.0335L138.091 87.2416L137.871 87.7037L137.937 87.9618L137.787 88.1865L137.646 88.5945L137.891 88.6694L137.787 88.9816L137.513 89.273L137.721 89.6143L137.296 90.0972L137.463 90.5135L137.409 90.7424L137.051 90.8923L137.371 91.1587L137.163 91.3668L136.455 91.242C136.455 91.242 135.997 91.4293 136.018 91.4709C136.039 91.5084 135.631 92.0079 135.61 91.9787C135.594 91.9496 135.052 92.2077 135.052 92.2077L134.753 92.7738L134.108 93.2317L133.417 93.1609L133.084 92.9445L132.53 92.4824L132.501 92.0162L132.351 91.5084L132.388 91.2211L132.638 91.1379H132.846L132.859 90.8465L132.701 90.6842L132.48 90.9755L132.205 90.8715L132.143 90.6758L132.284 90.6092V90.3595L132.055 90.193L131.772 89.7184L131.818 89.3854L131.527 89.1981L131.364 88.8401L131.023 88.7818L130.565 88.8484L130.07 88.5654L129.72 88.6694L129.454 88.2532L129.466 87.866L129.92 87.9992L130.399 87.8743L130.307 87.6287L130.619 87.4664L130.411 87.3748L129.995 87.2791L130.27 87.0626L130.694 87.0918H130.861L131.006 86.817L130.79 86.7671L130.503 86.8254L130.428 86.9752L130.061 86.9669L129.937 87.1833L129.395 87.5164L129 87.7411L128.717 88.2157L128.384 88.2074L128.284 88.4405L128.463 88.5737L128.292 88.9233L127.83 88.6902C127.83 88.6902 127.456 88.6611 127.431 88.6902C127.401 88.7152 126.569 88.8484 126.569 88.8484L126.465 88.8776L126.59 88.9442L126.91 88.9025L127.289 88.9816L127.705 88.94L127.988 89.0774L128.188 89.1065L128.167 89.2355L127.876 89.3021L127.809 89.5769L128.122 89.6435L128.538 89.7018L128.65 89.9099L129.021 90.0514L129.454 90.5218L129.841 90.7424L130.215 91.0921L130.128 91.3086L130.523 91.4043L130.752 91.6499L131.035 91.6665L131.023 91.9787L130.582 92.2701L130.732 92.4033L130.673 92.4616L130.34 92.1869L130.336 91.9704L130.165 91.8455L130.07 92.0662L130.278 92.2535L130.411 92.3867L130.607 92.5116L130.636 92.7072L130.532 92.6989L130.615 92.8238L130.515 92.8862L130.307 92.7572L130.078 92.6781L129.962 92.5199L129.862 92.3867L129.907 92.7738C129.907 92.7738 130.199 92.8321 130.232 92.8154C130.257 92.7946 130.382 92.9237 130.382 92.9237L130.353 92.9903L129.841 92.9736L129.674 92.8196L129.416 92.549L128.908 92.4533L128.517 92.4242L128.242 92.1702L128.409 92.1411L128.742 92.1952L128.896 92.0662L129.162 92.0454L129.133 91.754L129.37 91.575L129.029 91.1587L128.85 91.2836L128.584 90.9214L128.388 90.8382L128.026 90.9506L127.789 90.8465C127.789 90.8465 127.714 90.9006 127.714 90.9381C127.714 90.9797 127.963 91.1462 127.963 91.1462L127.726 91.2877L127.951 91.4792L127.855 91.7248L127.572 91.8206L127.447 92.0703L127.214 91.9121L127.222 92.1702L127.535 92.2368L127.751 92.2452L127.876 92.4033L128.055 92.5282L127.839 92.6115L127.639 92.6947L127.601 92.8113L127.352 92.7572L127.414 92.5865L127.61 92.5365L127.58 92.4325L127.401 92.4033L127.277 92.549L127.177 92.6115L127.006 92.5074L126.977 92.2077L127.06 91.9579L126.969 91.933L126.844 92.1869L126.598 92.5199L126.286 92.5948L126.011 92.9445C126.011 92.9445 125.803 92.9611 125.778 93.0111C125.749 93.0569 125.674 93.3982 125.674 93.3982L125.736 93.598L125.974 93.6646L125.994 94.0976L126.169 94.0892L126.494 94.2557L126.985 94.314L127.26 94.4972L127.647 94.5221L127.668 95.0716L127.934 95.2048L128.13 95.3838L128.226 95.2506L128.217 94.9301L128.092 94.5887L128.405 94.543L128.509 94.3431L128.7 94.0226L128.546 93.8145L128.084 93.5606L128.5 93.0111L128.434 92.6989L128.746 92.7821L129.012 92.8404H129.104L129.283 93.1318L129.758 93.3025L129.92 93.5772L130.153 93.7396L130.403 93.4357L130.532 93.2109L130.723 93.4357L130.961 93.9186L131.231 94.4389L131.602 94.7136L131.976 94.9759L132.084 95.3089L132.026 95.7418L132.368 95.8584L132.388 96.233L132.026 96.2164L131.622 96.1706H131.298L131.602 95.696L131.81 95.3214L131.506 95.338L131.244 95.5254L130.553 95.5337L130.107 95.5628L129.87 95.8542L130.041 95.9333L130.29 95.7834L130.54 95.9791L130.553 96.3662L130.711 96.4911L131.09 96.3954L131.231 96.4245L131.31 96.591L130.865 96.6618L130.798 96.7658L130.299 97.0988L130.215 96.7658L130.449 96.6243L130.324 96.541L129.882 96.8116L129.275 97.2279L129.529 97.615L129.029 97.7774L128.546 98.127L128.613 98.3809L128.538 98.5891L128.263 98.8097L127.789 99.2052L127.818 99.6298L127.98 99.942L127.938 100.225H127.697L127.526 99.9045L127.564 99.6006L127.347 99.4591L126.91 99.534L126.552 99.405L126.169 99.4716L125.699 99.5548L125.474 99.8212L125.124 100.283L125.154 100.916L125.283 101.332L125.72 101.482L126.061 101.295L126.336 101.132L126.411 101.041L126.798 101.145L127.023 100.991L127.506 100.7L127.797 100.804L128.172 100.774L128.53 100.908L129.058 101.095L129.295 101.249L129.616 101.316L129.974 101.407L129.937 101.482L129.862 101.561L129.487 101.578L129.058 101.361L128.867 101.495L128.621 101.324L128.226 101.153L128.084 100.953L127.66 100.945L127.497 100.783L127.281 101.003L127.118 101.128L126.864 101.303L126.656 101.644L126.71 101.911L127.497 101.898L127.539 102.335L127.489 102.781L127.601 102.914L127.951 102.997H128.159L128.434 103.026L128.775 102.627L129.2 102.544L129.533 102.498L129.87 102.76L130.286 102.818L130.619 102.81L131.035 103.147L131.41 103.318L131.905 103.734L132.197 103.555L132.53 103.772L132.805 104.105L133.021 104.438L133.467 104.521L134.108 104.916L134.374 104.991L134.769 105.279L135.157 105.612L135.24 105.408L135.365 105.607L135.336 106.032L135.073 106.432L134.815 106.723L134.715 107.243L134.561 107.547L134.411 107.922L134.041 108.226L134.07 108.475L133.512 108.538L133.021 108.938L133.075 109.295L132.842 109.533L132.492 110.128L132.243 110.278L131.905 110.528L131.543 110.411L131.66 110.619C131.66 110.619 131.839 110.723 131.868 110.732C131.893 110.744 131.685 110.99 131.685 110.99L131.252 111.331L130.977 111.319L130.798 111.577L130.673 111.868L130.324 111.631L130.407 111.905L130.503 111.947L130.561 112.039L130.394 112.189L130.382 112.33L130.041 112.513L130.024 112.692L130.22 112.775H130.336L130.44 112.992L130.099 113.279L129.778 113.562L129.766 113.779L129.899 113.945L129.907 114.128L129.841 114.232Z" fill="white"/>
</g>
</g>
</g>
</g>
<defs>
<clipPath id="clip0_5_56">
<rect width="200" height="56.4593" fill="white" transform="translate(0 72)"/>
</clipPath>
</defs>
</svg>
