<?xml version="1.0" encoding="utf-8"?>
<!-- Generator: Adobe Illustrator 27.7.0, SVG Export Plug-In . SVG Version: 6.00 Build 0)  -->
<svg version="1.1" id="레이어_1" xmlns="http://www.w3.org/2000/svg" xmlns:xlink="http://www.w3.org/1999/xlink" x="0px"
	 y="0px" viewBox="0 0 500 500" style="enable-background:new 0 0 500 500;" xml:space="preserve">
<style type="text/css">
	.st0{fill:#8DA4FF;}
</style>
<g>
	<path class="st0" d="M312.5,219c5.7,2.3,9.2,6.8,9.2,6.8c2,2.6,6,3.4,8.8,1.8l2.7-1.6c2.9-1.6,3.6-5.2,1.6-7.8
		c0,0-8-10.9-16.5-14.2c-15.6-6.1-30.5-0.6-35.3,11.7c-4.2,10.6,3.4,21.1,3.4,21.1c1.9,2.7,5.3,6.6,7.4,8.7s5.9,5.7,8.3,7.9
		c0,0,4.3,4,2.7,8.3c-1.6,3.9-5.6,5.2-12.1,2.6c-3.4-1.3-5.1-2.9-5.1-2.9c-2.4-2.2-4.4-4-4.4-4s-1.4-2.3-3.1-5.1l-22.1-36.9
		c-1.7-2.8-1.5-7.3,0.5-9.9l16.6-22c2-2.6,0.9-4.8-2.4-4.8h-8.7c-3.3,0-7.6,2.2-9.5,4.9l-15.3,21.4c-1.9,2.7-3.6,4.9-3.7,4.9
		s-0.2-2.7-0.2-6v-19.1c0-3.3-2.7-6-6-6h-6.9c-3.3,0-6,2.7-6,6v34c0,3.3-1.8,8-4,10.5l-8.3,9.4c-2.2,2.5-6,2.7-8.5,0.5l-38.2-33.6
		c-2.5-2.2-6.3-1.9-8.5,0.5l-4.6,5.2c-2.2,2.5-1.9,6.3,0.5,8.5l50.1,44.1c2.5,2.2,6.3,1.9,8.5-0.5l8.9-10.1c2.2-2.5,4-2.6,4-0.2
		s2.7,4.3,6,4.3h6.9c3.3,0,6-2.7,6-6v-8.6c0-3.3,1.6-8.2,3.6-10.8l1.5-2c2-2.7,4.9-2.5,6.5,0.4l12.5,21.9c1.6,2.9,3.4,5.2,3.9,5.2
		s0.6,0.1,0.3,0.3s1.1,2.4,3.1,5c0,0,10,12.8,19.5,16.6c17.7,7,32.2,0.3,37-11.9c4.1-10.3-3.1-20.8-3.1-20.8
		c-1.9-2.7-5.1-6.6-7.3-8.6s-5.9-5.4-8.3-7.6c0,0-5-4.5-3.4-8.6C302.9,217.7,307.1,216.9,312.5,219z"/>
</g>
</svg>
