<svg width="488" height="262" viewBox="0 0 488 262" fill="none" xmlns="http://www.w3.org/2000/svg">
<path d="M428.1 102.5C442.54 108.2 451.35 119.68 451.35 119.68C456.43 126.3 466.5 128.31 473.73 124.13L480.6 120.16C487.83 115.99 489.7 107.08 484.75 100.35C484.75 100.35 464.54 72.8602 443.13 64.4102C403.8 48.8902 366.1 62.7802 353.82 93.8902C343.21 120.77 362.44 147.23 362.44 147.23C367.35 153.98 375.8 163.84 381.22 169.15C386.64 174.46 396.08 183.44 402.2 189.12C402.2 189.12 413.19 199.32 408.96 210.02C405.03 219.98 394.86 223.15 378.43 216.67C369.9 213.3 365.56 209.33 365.56 209.33C359.4 203.7 354.4 199.09 354.44 199.09C354.48 199.09 351.01 193.23 346.73 186.07L290.87 92.7602C286.58 85.6002 287.19 74.2902 292.22 67.6302L334.14 12.1002C339.17 5.44024 336.45 -0.00976562 328.11 -0.00976562H306.01C297.67 -0.00976562 286.86 5.54023 281.99 12.3202L243.22 66.3402C238.35 73.1202 234.19 78.6702 233.97 78.6702C233.75 78.6702 233.57 71.8402 233.57 63.5002V15.1702C233.57 6.83023 226.74 0.000234375 218.4 0.000234375H200.85C192.51 0.000234375 185.68 6.83023 185.68 15.1702V101.25C185.68 109.59 181.17 121.55 175.66 127.82L154.76 151.59C149.25 157.86 139.61 158.48 133.35 152.97L36.76 68.0402C30.49 62.5302 20.86 63.1502 15.35 69.4202L3.76003 82.6002C-1.74997 88.8702 -1.12997 98.5002 5.14003 104.01L131.86 215.44C138.13 220.95 147.76 220.33 153.27 214.06L175.66 188.6C181.17 182.33 185.68 182.13 185.68 188.14C185.68 194.15 192.51 199.08 200.85 199.08H218.4C226.74 199.08 233.57 192.25 233.57 183.91V162.07C233.57 153.73 237.62 141.4 242.57 134.68L246.25 129.68C251.2 122.96 258.64 123.38 262.8 130.62L294.53 185.91C298.68 193.15 303.07 199.07 304.27 199.07C305.47 199.07 305.82 199.42 305.04 199.86C304.26 200.3 307.82 206.04 312.94 212.62C312.94 212.62 338.17 245.06 362.31 254.59C407.11 272.27 443.71 255.36 455.89 224.5C466.21 198.36 447.94 171.78 447.94 171.78C443.21 164.9 434.96 155.15 429.59 150.1C424.22 145.05 414.75 136.36 408.55 130.79C408.55 130.79 395.84 119.37 399.86 109.17C403.79 99.2102 414.41 97.0802 428.1 102.48V102.5Z" fill="#8DA4FF"/>
</svg>
