<svg width="200" height="200" viewBox="0 0 200 200" fill="none" xmlns="http://www.w3.org/2000/svg">
<rect width="200" height="200" fill="#FFFDEE"/>
<path d="M10.9853 160.024C11.02 160.249 11.1067 160.509 11.2453 160.804C11.384 161.081 11.462 161.385 11.4793 161.714C11.4967 162.113 11.4273 162.433 11.2713 162.676C11.1327 162.901 10.9507 163.031 10.7253 163.066C10.2053 163.135 9.78933 162.988 9.47733 162.624C9.18266 162.243 9.05266 161.723 9.08733 161.064C9.10466 160.631 9.18266 160.171 9.32133 159.686C9.47733 159.183 9.66799 158.689 9.89333 158.204C10.136 157.719 10.4133 157.251 10.7253 156.8C11.0547 156.349 11.41 155.942 11.7913 155.578C11.9473 155.439 12.0947 155.37 12.2333 155.37C12.372 155.37 12.4847 155.413 12.5713 155.5C12.6753 155.569 12.7273 155.682 12.7273 155.838C12.7447 155.977 12.7013 156.115 12.5973 156.254C12.3893 156.549 12.1987 156.826 12.0253 157.086C11.8693 157.346 11.722 157.606 11.5833 157.866C11.462 158.109 11.3493 158.377 11.2453 158.672C11.1413 158.949 11.0547 159.261 10.9853 159.608C10.9507 159.764 10.9507 159.903 10.9853 160.024ZM21.6719 164.366C21.4119 164.505 21.0133 164.669 20.4759 164.86C19.9386 165.033 19.3493 165.215 18.7079 165.406C18.3959 165.493 18.0753 165.579 17.7459 165.666C17.4339 165.735 17.1306 165.787 16.8359 165.822C16.8013 166.481 16.7666 167.079 16.7319 167.616C16.7146 168.153 16.7319 168.535 16.7839 168.76C16.8186 168.933 16.8619 169.063 16.9139 169.15C16.9659 169.237 17.1046 169.237 17.3299 169.15C17.6593 169.046 18.0233 168.89 18.4219 168.682C18.8206 168.474 19.2279 168.249 19.6439 168.006C20.0426 167.763 20.4326 167.503 20.8139 167.226C21.1953 166.931 21.5333 166.654 21.8279 166.394C22.1746 166.065 22.4693 165.822 22.7119 165.666C22.9546 165.51 23.1539 165.51 23.3099 165.666C23.3966 165.753 23.4139 165.952 23.3619 166.264C23.3099 166.576 23.2059 166.853 23.0499 167.096C22.7206 167.616 22.2699 168.119 21.6979 168.604C21.1259 169.072 20.5366 169.488 19.9299 169.852C19.3233 170.216 18.7599 170.519 18.2399 170.762C17.7199 170.987 17.3473 171.109 17.1219 171.126C16.7059 171.178 16.3159 171.1 15.9519 170.892C15.5879 170.684 15.3366 170.372 15.1979 169.956C15.1113 169.696 15.0506 169.332 15.0159 168.864C14.9986 168.396 15.0073 167.876 15.0419 167.304C15.0419 167.079 15.0419 166.853 15.0419 166.628C15.0593 166.403 15.0766 166.169 15.0939 165.926C15.0766 165.926 15.0593 165.926 15.0419 165.926C15.0419 165.909 15.0333 165.9 15.0159 165.9C14.8773 165.865 14.6953 165.779 14.4699 165.64C14.2619 165.501 14.1579 165.311 14.1579 165.068C14.1579 164.843 14.2619 164.687 14.4699 164.6C14.6779 164.513 14.8773 164.453 15.0679 164.418C15.1373 164.418 15.1893 164.409 15.2239 164.392C15.2413 164.271 15.2499 164.158 15.2499 164.054C15.2673 163.933 15.2933 163.811 15.3279 163.69C15.3626 163.343 15.4059 163.014 15.4579 162.702C15.5099 162.373 15.5533 162.078 15.5879 161.818C15.4493 161.853 15.3453 161.87 15.2759 161.87C15.1719 161.887 15.0333 161.896 14.8599 161.896C14.7039 161.879 14.5566 161.844 14.4179 161.792C14.0713 161.671 13.8979 161.489 13.8979 161.246C13.9153 161.021 14.0539 160.839 14.3139 160.7C14.5739 160.561 14.8079 160.457 15.0159 160.388C15.2066 160.336 15.4666 160.284 15.7959 160.232C16.1253 160.163 16.4806 160.093 16.8619 160.024C17.2259 159.972 17.5899 159.929 17.9539 159.894C18.3353 159.859 18.6733 159.851 18.9679 159.868C19.2453 159.868 19.5399 159.92 19.8519 160.024C20.1639 160.128 20.3459 160.275 20.3979 160.466C20.4153 160.587 20.3806 160.709 20.2939 160.83C20.2246 160.934 20.1379 161.021 20.0339 161.09C19.9126 161.177 19.7826 161.246 19.6439 161.298C19.5226 161.333 19.4099 161.35 19.3059 161.35C18.6646 161.402 18.0059 161.48 17.3299 161.584C17.2606 161.931 17.1999 162.321 17.1479 162.754C17.0959 163.17 17.0439 163.612 16.9919 164.08C17.6679 163.959 18.3266 163.829 18.9679 163.69C19.6093 163.551 20.1899 163.413 20.7099 163.274C20.9353 163.187 21.1953 163.135 21.4899 163.118C21.7846 163.101 22.0273 163.179 22.2179 163.352C22.2873 163.421 22.2959 163.569 22.2439 163.794C22.2093 164.002 22.0186 164.193 21.6719 164.366ZM28.4059 160.258C28.4059 159.755 28.6226 159.53 29.0559 159.582C29.2639 159.617 29.4719 159.703 29.6799 159.842C29.9053 159.963 30.0093 160.119 29.9919 160.31C30.0093 160.847 30.0266 161.445 30.0439 162.104C30.0613 162.763 30.0699 163.43 30.0699 164.106C30.0699 164.782 30.0613 165.449 30.0439 166.108C30.0439 166.767 30.0353 167.365 30.0179 167.902C30.0179 168.162 29.9139 168.37 29.7059 168.526C29.4979 168.665 29.3333 168.717 29.2119 168.682C28.8306 168.578 28.6139 168.266 28.5619 167.746C28.5446 167.087 28.5273 166.333 28.5099 165.484C28.5099 164.635 28.5013 163.785 28.4839 162.936C28.2413 163.023 27.9899 163.127 27.7299 163.248C27.4873 163.352 27.2446 163.456 27.0019 163.56C26.5166 163.768 26.0486 163.967 25.5979 164.158C25.1646 164.349 24.7919 164.513 24.4799 164.652C24.2026 164.756 23.9253 164.747 23.6479 164.626C23.3359 164.505 23.1799 164.331 23.1799 164.106C23.1973 163.777 23.5179 163.447 24.1419 163.118C24.4193 162.979 24.7746 162.815 25.2079 162.624C25.6586 162.433 26.1353 162.234 26.6379 162.026C26.9326 161.905 27.2273 161.783 27.5219 161.662C27.8339 161.541 28.1373 161.428 28.4319 161.324C28.4319 161.133 28.4233 160.951 28.4059 160.778C28.4059 160.605 28.4059 160.431 28.4059 160.258ZM38.1151 163.586C37.5604 164.21 36.9191 164.999 36.1911 165.952C35.4804 166.888 34.7611 167.997 34.0331 169.28C33.9291 169.471 33.7384 169.609 33.4611 169.696C33.1838 169.765 32.9844 169.731 32.8631 169.592C32.7071 169.419 32.6291 169.176 32.6291 168.864C32.6291 168.552 32.6724 168.309 32.7591 168.136C33.3138 167.165 33.8858 166.29 34.4751 165.51C35.0644 164.713 35.6104 163.993 36.1131 163.352C35.6798 163.404 35.2204 163.517 34.7351 163.69C34.2498 163.846 33.7818 164.045 33.3311 164.288C33.1578 164.375 32.9671 164.461 32.7591 164.548C32.5511 164.617 32.3518 164.531 32.1611 164.288C32.0224 164.097 31.9704 163.907 32.0051 163.716C32.0571 163.508 32.1438 163.352 32.2651 163.248C32.5598 162.953 32.9324 162.702 33.3831 162.494C33.8511 162.286 34.3364 162.113 34.8391 161.974C34.7524 161.558 34.6484 161.125 34.5271 160.674C34.4058 160.206 34.2758 159.747 34.1371 159.296C33.9984 158.845 33.8598 158.421 33.7211 158.022C33.5824 157.606 33.4611 157.251 33.3571 156.956C33.2704 156.731 33.2791 156.531 33.3831 156.358C33.4871 156.167 33.6084 156.046 33.7471 155.994C33.8858 155.925 34.0678 155.916 34.2931 155.968C34.5358 156.02 34.7264 156.185 34.8651 156.462C35.0038 156.757 35.1424 157.112 35.2811 157.528C35.4371 157.944 35.5671 158.395 35.6711 158.88C35.7751 159.365 35.8618 159.859 35.9311 160.362C36.0004 160.847 36.0264 161.307 36.0091 161.74C36.1304 161.723 36.2431 161.714 36.3471 161.714C36.4511 161.714 36.5551 161.705 36.6591 161.688C37.2484 161.671 37.6991 161.818 38.0111 162.13C38.2018 162.321 38.3144 162.555 38.3491 162.832C38.3838 163.092 38.3058 163.343 38.1151 163.586ZM43.8871 171.022C43.9218 171.334 43.8871 171.577 43.7831 171.75C43.6791 171.906 43.5318 171.984 43.3411 171.984C43.0464 171.984 42.8038 171.854 42.6131 171.594C42.4398 171.317 42.3358 171.065 42.3011 170.84C42.2491 170.528 42.2144 170.121 42.1971 169.618C42.1798 169.098 42.1711 168.535 42.1711 167.928C42.1711 167.304 42.1798 166.663 42.1971 166.004C42.2318 165.345 42.2664 164.713 42.3011 164.106C42.3531 163.482 42.4138 162.91 42.4831 162.39C42.5524 161.853 42.6304 161.411 42.7171 161.064C42.8558 160.475 43.0984 160.18 43.4451 160.18C43.6011 160.18 43.7311 160.232 43.8351 160.336C43.9564 160.423 44.0431 160.544 44.0951 160.7C44.1644 160.839 44.2078 160.986 44.2251 161.142C44.2598 161.281 44.2684 161.402 44.2511 161.506C44.0431 163.17 43.9131 164.782 43.8611 166.342C43.8091 167.885 43.8178 169.445 43.8871 171.022ZM36.6331 166.94C36.6158 166.801 36.6158 166.663 36.6331 166.524C36.6504 166.368 36.7631 166.264 36.9711 166.212C37.0404 166.195 37.1358 166.212 37.2571 166.264C37.3784 166.316 37.4998 166.385 37.6211 166.472C37.7424 166.559 37.8464 166.654 37.9331 166.758C38.0198 166.862 38.0718 166.966 38.0891 167.07C38.1584 167.33 38.2364 167.651 38.3231 168.032C38.4098 168.396 38.5051 168.777 38.6091 169.176C38.7131 169.575 38.8171 169.965 38.9211 170.346C39.0251 170.727 39.1378 171.057 39.2591 171.334C39.3458 171.577 39.3458 171.776 39.2591 171.932C39.1898 172.088 39.0858 172.209 38.9471 172.296C38.8084 172.383 38.6611 172.426 38.5051 172.426C38.3664 172.426 38.2451 172.357 38.1411 172.218C37.8811 171.906 37.6558 171.507 37.4651 171.022C37.2918 170.519 37.1444 170.008 37.0231 169.488C36.9191 168.968 36.8324 168.483 36.7631 168.032C36.7111 167.564 36.6678 167.2 36.6331 166.94ZM56.8432 169.332C57.0166 169.332 57.1726 169.289 57.3112 169.202C57.4672 169.115 57.5972 169.011 57.7012 168.89C57.8052 168.751 57.8746 168.613 57.9092 168.474C57.9612 168.335 57.9699 168.223 57.9352 168.136C57.8312 167.841 57.7619 167.581 57.7272 167.356C57.6926 167.131 57.7532 166.949 57.9092 166.81C58.0826 166.671 58.2732 166.663 58.4812 166.784C58.7066 166.905 58.8626 167.044 58.9492 167.2C59.1919 167.651 59.3046 168.067 59.2872 168.448C59.2872 168.812 59.2092 169.15 59.0532 169.462C58.8972 169.774 58.6892 170.051 58.4292 170.294C58.1692 170.519 57.9006 170.701 57.6232 170.84C57.3459 170.979 57.0686 171.083 56.7912 171.152C56.5139 171.221 56.2626 171.221 56.0372 171.152C55.8119 171.083 55.6299 170.944 55.4912 170.736C55.3526 170.511 55.2832 170.19 55.2832 169.774C55.2832 168.786 55.4739 167.789 55.8552 166.784C56.2539 165.761 56.7219 164.834 57.2592 164.002C56.7392 163.967 56.2539 163.985 55.8032 164.054C55.3699 164.106 54.9019 164.175 54.3992 164.262C53.9486 164.349 53.5932 164.184 53.3332 163.768C53.1946 163.508 53.2379 163.274 53.4632 163.066C53.5152 163.014 53.7059 162.953 54.0352 162.884C54.3646 162.797 54.7459 162.719 55.1792 162.65C55.6126 162.581 56.0546 162.537 56.5052 162.52C56.9559 162.503 57.3286 162.529 57.6232 162.598C57.3806 162.009 57.0859 161.428 56.7392 160.856C56.3926 160.284 56.0372 159.695 55.6732 159.088C55.6212 158.967 55.6299 158.828 55.6992 158.672C55.7686 158.516 55.8726 158.403 56.0112 158.334C56.0806 158.299 56.1672 158.273 56.2712 158.256C56.3926 158.239 56.5052 158.256 56.6092 158.308C57.1292 158.689 57.5279 159.114 57.8052 159.582C58.0999 160.033 58.2992 160.475 58.4032 160.908C58.5246 161.341 58.5766 161.749 58.5592 162.13C58.5419 162.494 58.4899 162.78 58.4032 162.988C58.6979 163.179 58.8452 163.439 58.8452 163.768C58.8626 164.08 58.7672 164.427 58.5592 164.808C58.1779 165.484 57.8226 166.203 57.4932 166.966C57.1639 167.711 56.9472 168.5 56.8432 169.332ZM64.0972 167.798C63.8892 167.729 63.7159 167.616 63.5772 167.46C63.4559 167.287 63.3866 167.131 63.3692 166.992C63.3172 166.472 63.2739 165.865 63.2392 165.172C63.2046 164.461 63.1872 163.751 63.1872 163.04C63.2046 162.329 63.2392 161.653 63.2912 161.012C63.3606 160.353 63.4472 159.816 63.5512 159.4C63.6206 159.192 63.6986 159.01 63.7852 158.854C63.8892 158.681 64.0106 158.611 64.1492 158.646C64.3052 158.681 64.4959 158.793 64.7212 158.984C64.9466 159.175 65.0506 159.4 65.0332 159.66C64.9119 160.544 64.8339 161.523 64.7992 162.598C65.3539 162.494 65.9346 162.433 66.5412 162.416C67.1652 162.399 67.7112 162.503 68.1792 162.728C68.4046 162.832 68.5606 162.988 68.6472 163.196C68.7512 163.404 68.7686 163.577 68.6992 163.716C68.6646 163.803 68.5519 163.863 68.3612 163.898C68.1879 163.915 67.9886 163.924 67.7632 163.924C67.1392 163.924 66.5932 163.95 66.1252 164.002C65.6746 164.037 65.2239 164.123 64.7732 164.262C64.7732 164.765 64.7819 165.259 64.7992 165.744C64.8166 166.212 64.8426 166.645 64.8772 167.044C64.8946 167.235 64.8426 167.434 64.7212 167.642C64.6172 167.833 64.4092 167.885 64.0972 167.798ZM62.8492 168.942C62.7972 169.306 62.7452 169.783 62.6932 170.372C62.6412 170.961 62.6326 171.568 62.6672 172.192C63.4299 172.036 64.2012 171.837 64.9812 171.594C65.7786 171.334 66.5412 171.1 67.2692 170.892C67.3906 170.857 67.5379 170.875 67.7112 170.944C67.9019 170.996 68.0406 171.083 68.1272 171.204C68.2312 171.325 68.2572 171.473 68.2052 171.646C68.1532 171.819 67.9539 171.993 67.6072 172.166C67.2606 172.357 66.8532 172.547 66.3852 172.738C65.9346 172.911 65.4839 173.076 65.0332 173.232C64.5826 173.388 64.1579 173.518 63.7592 173.622C63.3779 173.726 63.0832 173.804 62.8752 173.856C62.2166 173.995 61.7226 174.012 61.3932 173.908C61.0639 173.787 60.8992 173.449 60.8992 172.894C60.8992 172.686 60.8992 172.426 60.8992 172.114C60.9166 171.785 60.9339 171.447 60.9512 171.1C60.9859 170.736 61.0292 170.381 61.0812 170.034C61.1332 169.687 61.2112 169.393 61.3152 169.15C61.4366 168.855 61.5839 168.621 61.7572 168.448C61.9306 168.257 62.1646 168.162 62.4592 168.162C62.5632 168.162 62.6586 168.223 62.7452 168.344C62.8492 168.448 62.8839 168.647 62.8492 168.942ZM76.9485 160.596C76.9832 160.943 77.0005 161.298 77.0005 161.662C77.0005 162.026 76.9919 162.399 76.9745 162.78C77.9972 162.191 78.9505 161.627 79.8345 161.09C80.7359 160.535 81.4899 160.128 82.0965 159.868C82.2179 159.816 82.3479 159.799 82.4865 159.816C82.6425 159.816 82.7725 159.859 82.8765 159.946C82.9979 160.033 83.0932 160.163 83.1625 160.336C83.2319 160.492 83.2492 160.691 83.2145 160.934C83.1625 161.246 83.1105 161.645 83.0585 162.13C83.0239 162.598 82.9892 163.092 82.9545 163.612C82.9199 164.132 82.8939 164.635 82.8765 165.12C82.8592 165.605 82.8505 166.013 82.8505 166.342C82.8505 166.81 82.7552 167.122 82.5645 167.278C82.3739 167.417 82.1919 167.486 82.0185 167.486C81.8279 167.486 81.6719 167.382 81.5505 167.174C81.4465 166.949 81.3772 166.715 81.3425 166.472C81.3252 166.229 81.3079 165.909 81.2905 165.51C81.2905 165.111 81.2992 164.695 81.3165 164.262C81.3339 163.811 81.3512 163.378 81.3685 162.962C81.3859 162.529 81.4119 162.165 81.4465 161.87C81.0999 162.061 80.7185 162.26 80.3025 162.468C79.9039 162.676 79.5052 162.893 79.1065 163.118C78.7079 163.343 78.3179 163.569 77.9365 163.794C77.5552 164.019 77.2085 164.245 76.8965 164.47C76.8099 165.285 76.7059 166.082 76.5845 166.862C76.4632 167.625 76.2639 168.301 75.9865 168.89C75.8479 169.15 75.6832 169.341 75.4925 169.462C75.3019 169.583 75.1112 169.644 74.9205 169.644C74.6432 169.644 74.4005 169.575 74.1925 169.436C74.0019 169.297 73.8372 169.124 73.6985 168.916C73.5599 168.691 73.4472 168.457 73.3605 168.214C73.2912 167.954 73.2565 167.703 73.2565 167.46C73.2219 166.68 73.3952 165.961 73.7765 165.302C74.1579 164.643 74.6952 164.097 75.3885 163.664C75.4579 163.213 75.4752 162.711 75.4405 162.156C75.4232 161.584 75.4059 161.012 75.3885 160.44C75.3885 160.163 75.4492 159.963 75.5705 159.842C75.7092 159.721 75.9345 159.695 76.2465 159.764C76.6799 159.885 76.9139 160.163 76.9485 160.596ZM72.1385 168.396C72.2079 168.621 72.2339 168.838 72.2165 169.046C72.1992 169.237 72.0519 169.349 71.7745 169.384C71.5319 169.419 71.3152 169.332 71.1245 169.124C70.9339 168.899 70.7865 168.682 70.6825 168.474C70.5092 168.145 70.3619 167.789 70.2405 167.408C70.1192 167.027 70.0239 166.585 69.9545 166.082C69.9025 165.579 69.8679 164.999 69.8505 164.34C69.8505 163.664 69.8765 162.875 69.9285 161.974C69.9459 161.783 70.0239 161.61 70.1625 161.454C70.3185 161.281 70.5352 161.237 70.8125 161.324C71.0552 161.393 71.2459 161.575 71.3845 161.87C71.5405 162.165 71.5925 162.52 71.5405 162.936C71.4885 163.976 71.5145 164.938 71.6185 165.822C71.7225 166.706 71.8959 167.564 72.1385 168.396ZM74.6085 168.032C74.6605 167.963 74.7212 167.824 74.7905 167.616C74.8599 167.408 74.9205 167.165 74.9725 166.888C75.0419 166.611 75.0939 166.333 75.1285 166.056C75.1805 165.761 75.2152 165.501 75.2325 165.276C74.8165 165.553 74.5219 165.874 74.3485 166.238C74.1752 166.602 74.0885 166.975 74.0885 167.356C74.0885 167.477 74.1059 167.59 74.1405 167.694C74.1752 167.798 74.2185 167.893 74.2705 167.98C74.3225 168.049 74.3745 168.093 74.4265 168.11C74.4959 168.127 74.5565 168.101 74.6085 168.032ZM80.2765 168.162C80.2072 168.751 80.1379 169.41 80.0685 170.138C79.9992 170.849 79.9559 171.49 79.9385 172.062C81.0305 171.923 82.0532 171.672 83.0065 171.308C83.9772 170.944 84.9479 170.597 85.9185 170.268C86.1785 170.181 86.3085 170.233 86.3085 170.424C86.3259 170.736 86.2392 171.013 86.0485 171.256C85.8752 171.481 85.6585 171.672 85.3985 171.828C83.6132 172.885 81.6892 173.622 79.6265 174.038C79.5225 174.073 79.3839 174.09 79.2105 174.09C79.0372 174.073 78.8725 174.029 78.7165 173.96C78.5605 173.873 78.4305 173.752 78.3265 173.596C78.2225 173.44 78.1792 173.223 78.1965 172.946C78.2659 171.403 78.4739 169.852 78.8205 168.292C78.8725 168.067 78.9765 167.893 79.1325 167.772C79.2885 167.651 79.4532 167.599 79.6265 167.616C79.7999 167.633 79.9559 167.677 80.0945 167.746C80.2505 167.815 80.3112 167.954 80.2765 168.162ZM90.8368 164.08C90.5421 164.531 90.1435 164.912 89.6408 165.224C89.1555 165.519 88.6181 165.683 88.0288 165.718C87.4221 165.753 86.9455 165.597 86.5988 165.25C86.2521 164.886 86.0961 164.453 86.1308 163.95C86.1655 163.551 86.2868 163.144 86.4948 162.728C86.7201 162.312 86.9888 161.931 87.3008 161.584C87.4568 161.428 87.6215 161.307 87.7948 161.22C87.9681 161.116 88.1501 161.021 88.3408 160.934C88.5661 160.847 88.7828 160.804 88.9908 160.804C89.2161 160.804 89.3808 160.847 89.4848 160.934C89.5541 161.021 89.5801 161.116 89.5628 161.22C89.5628 161.324 89.4935 161.454 89.3548 161.61C89.2161 161.783 89.0775 161.957 88.9388 162.13C88.8001 162.303 88.6961 162.433 88.6268 162.52C88.5228 162.676 88.4188 162.841 88.3148 163.014C88.2108 163.187 88.1241 163.361 88.0548 163.534C88.0028 163.69 87.9768 163.837 87.9768 163.976C87.9941 164.097 88.0635 164.175 88.1848 164.21C88.2888 164.245 88.4188 164.227 88.5748 164.158C88.7308 164.089 88.8868 163.993 89.0428 163.872C89.1988 163.733 89.3461 163.586 89.4848 163.43C89.6235 163.257 89.7188 163.092 89.7708 162.936C89.5975 162.745 89.4675 162.581 89.3808 162.442C89.2941 162.286 89.3461 162.121 89.5368 161.948C89.6581 161.844 89.7968 161.792 89.9528 161.792C90.1088 161.775 90.2388 161.783 90.3428 161.818C90.5508 161.887 90.7155 162.009 90.8368 162.182C90.9755 162.338 91.0621 162.529 91.0968 162.754C91.1488 162.962 91.1488 163.187 91.0968 163.43C91.0621 163.655 90.9755 163.872 90.8368 164.08ZM86.9888 170.606C86.8501 170.623 86.6941 170.632 86.5208 170.632C86.3475 170.615 86.1741 170.589 86.0008 170.554C85.8275 170.502 85.6801 170.433 85.5588 170.346C85.4375 170.259 85.3681 170.138 85.3508 169.982C85.3335 169.757 85.4288 169.557 85.6368 169.384C85.8621 169.211 86.1221 169.107 86.4168 169.072C87.0061 168.985 87.6561 168.855 88.3668 168.682C89.0775 168.509 89.7708 168.327 90.4468 168.136C91.1228 167.945 91.7468 167.763 92.3188 167.59C92.8908 167.417 93.3415 167.287 93.6708 167.2C93.7921 167.165 93.9395 167.139 94.1128 167.122C94.2861 167.087 94.4508 167.079 94.6068 167.096C94.7628 167.113 94.8928 167.157 94.9968 167.226C95.1181 167.295 95.1875 167.417 95.2048 167.59C95.2221 167.677 95.2048 167.807 95.1528 167.98C95.1008 168.153 94.9968 168.292 94.8408 168.396C94.7195 168.483 94.3988 168.63 93.8788 168.838C93.3588 169.029 92.7261 169.245 91.9808 169.488C91.2355 169.713 90.4208 169.93 89.5368 170.138C88.6701 170.346 87.8208 170.502 86.9888 170.606ZM100.02 160.804C99.8814 161.064 99.7081 161.359 99.5001 161.688C99.3094 162.017 99.1101 162.355 98.9021 162.702C99.0581 162.667 99.2401 162.641 99.4481 162.624C99.6734 162.589 99.8814 162.563 100.072 162.546C100.575 162.511 100.887 162.641 101.008 162.936C101.129 163.213 101.095 163.534 100.904 163.898C100.696 164.297 100.445 164.713 100.15 165.146C99.8728 165.579 99.6301 166.082 99.4221 166.654C99.6648 166.619 99.9248 166.593 100.202 166.576C100.479 166.541 100.739 166.533 100.982 166.55C101.45 166.585 101.797 166.767 102.022 167.096C102.265 167.408 102.325 167.807 102.204 168.292C102.048 168.899 101.797 169.462 101.45 169.982C101.121 170.485 100.757 170.935 100.358 171.334C100.947 171.299 101.485 171.265 101.97 171.23C102.455 171.195 102.915 171.152 103.348 171.1C103.799 171.048 104.249 170.987 104.7 170.918C105.151 170.849 105.636 170.771 106.156 170.684C106.503 170.649 106.728 170.675 106.832 170.762C106.936 170.831 107.014 170.953 107.066 171.126C107.066 171.421 106.988 171.655 106.832 171.828C106.676 171.984 106.433 172.105 106.104 172.192C103.799 172.833 101.441 173.128 99.0321 173.076C98.5988 173.059 98.2868 172.955 98.0961 172.764C97.9054 172.556 97.8274 172.348 97.8621 172.14C97.8621 172.001 97.8968 171.871 97.9661 171.75C98.0528 171.629 98.1654 171.516 98.3041 171.412C98.4948 171.256 98.7114 171.057 98.9541 170.814C99.1968 170.571 99.4221 170.303 99.6301 170.008C99.8554 169.713 100.055 169.41 100.228 169.098C100.419 168.769 100.549 168.448 100.618 168.136C100.358 168.171 99.9941 168.231 99.5261 168.318C99.0754 168.405 98.6508 168.379 98.2521 168.24C98.0614 168.153 97.9141 167.997 97.8101 167.772C97.7234 167.547 97.7061 167.287 97.7581 166.992C97.8448 166.576 98.0268 166.099 98.3041 165.562C98.5988 165.025 98.9108 164.548 99.2401 164.132C99.0321 164.167 98.7808 164.219 98.4861 164.288C98.1914 164.357 97.9314 164.427 97.7061 164.496C97.4461 164.548 97.2208 164.522 97.0301 164.418C96.8568 164.314 96.7268 164.184 96.6401 164.028C96.4668 163.664 96.4928 163.326 96.7181 163.014C97.1168 162.459 97.4548 161.965 97.7321 161.532C98.0094 161.099 98.2434 160.674 98.4341 160.258C98.2088 160.171 97.9141 160.128 97.5501 160.128C97.1861 160.111 96.8568 160.102 96.5621 160.102C96.4234 160.102 96.2761 160.041 96.1201 159.92C95.9814 159.781 95.9034 159.634 95.8861 159.478C95.8861 159.287 95.9554 159.114 96.0941 158.958C96.2328 158.802 96.4234 158.707 96.6661 158.672C97.0128 158.637 97.3941 158.637 97.8101 158.672C98.2434 158.707 98.6594 158.802 99.0581 158.958C99.5608 159.149 99.8901 159.409 100.046 159.738C100.219 160.067 100.211 160.423 100.02 160.804ZM114.423 166.654C114.388 166.567 114.388 166.455 114.423 166.316C114.475 166.16 114.657 166.013 114.969 165.874C115.697 165.614 116.442 165.38 117.205 165.172C117.968 164.947 118.696 164.791 119.389 164.704L119.675 162.234C119.051 162.269 118.401 162.355 117.725 162.494C117.066 162.633 116.468 162.78 115.931 162.936C115.619 163.023 115.368 162.997 115.177 162.858C115.004 162.702 114.9 162.581 114.865 162.494C114.778 162.199 114.804 161.965 114.943 161.792C115.099 161.601 115.255 161.471 115.411 161.402C115.723 161.263 116.096 161.151 116.529 161.064C116.962 160.96 117.396 160.873 117.829 160.804C118.262 160.735 118.661 160.691 119.025 160.674C119.406 160.639 119.701 160.622 119.909 160.622C120.065 160.622 120.23 160.657 120.403 160.726C120.594 160.795 120.758 160.899 120.897 161.038C121.053 161.177 121.174 161.359 121.261 161.584C121.348 161.809 121.382 162.078 121.365 162.39C121.348 162.615 121.313 162.953 121.261 163.404C121.226 163.837 121.174 164.34 121.105 164.912C121.036 165.467 120.958 166.056 120.871 166.68C120.802 167.304 120.732 167.902 120.663 168.474C120.594 169.029 120.524 169.531 120.455 169.982C120.386 170.433 120.325 170.771 120.273 170.996C120.186 171.36 120.039 171.62 119.831 171.776C119.64 171.932 119.45 171.984 119.259 171.932C119.068 171.88 118.904 171.759 118.765 171.568C118.644 171.377 118.6 171.161 118.635 170.918L119.181 166.29C118.574 166.481 117.985 166.654 117.413 166.81C116.858 166.966 116.33 167.105 115.827 167.226C115.515 167.313 115.212 167.287 114.917 167.148C114.64 167.009 114.475 166.845 114.423 166.654ZM126.071 169.384C126.088 169.679 125.984 169.895 125.759 170.034C125.534 170.173 125.308 170.225 125.083 170.19C124.962 170.155 124.823 170.06 124.667 169.904C124.511 169.748 124.424 169.54 124.407 169.28C124.355 168.465 124.312 167.642 124.277 166.81C124.26 165.961 124.251 165.137 124.251 164.34C124.268 163.543 124.286 162.78 124.303 162.052C124.338 161.324 124.381 160.665 124.433 160.076C124.468 159.729 124.554 159.478 124.693 159.322C124.832 159.149 124.996 159.062 125.187 159.062C125.447 159.097 125.672 159.253 125.863 159.53C126.071 159.79 126.166 160.041 126.149 160.284C126.097 160.908 126.054 161.575 126.019 162.286C126.002 162.979 125.984 163.699 125.967 164.444C126.522 164.253 127.137 164.089 127.813 163.95C128.489 163.794 129.13 163.699 129.737 163.664C130.014 163.647 130.257 163.664 130.465 163.716C130.673 163.751 130.777 163.863 130.777 164.054C130.777 164.279 130.647 164.479 130.387 164.652C130.144 164.825 129.876 164.955 129.581 165.042C129.182 165.163 128.654 165.328 127.995 165.536C127.354 165.744 126.686 165.978 125.993 166.238C125.993 167.33 126.019 168.379 126.071 169.384ZM146.231 168.916C146.093 168.916 145.971 168.864 145.867 168.76C145.763 168.656 145.677 168.526 145.607 168.37C145.538 168.214 145.477 168.041 145.425 167.85C145.391 167.659 145.365 167.469 145.347 167.278C145.295 166.758 145.252 166.238 145.217 165.718C145.183 165.181 145.174 164.583 145.191 163.924C144.758 164.184 144.368 164.409 144.021 164.6C143.692 164.773 143.363 164.938 143.033 165.094C142.704 165.25 142.366 165.397 142.019 165.536C141.673 165.675 141.283 165.822 140.849 165.978C140.537 166.099 140.277 166.117 140.069 166.03C139.879 165.926 139.766 165.77 139.731 165.562C139.679 165.371 139.74 165.146 139.913 164.886C140.087 164.626 140.381 164.401 140.797 164.21C141.213 164.037 141.603 163.863 141.967 163.69C142.331 163.517 142.687 163.343 143.033 163.17C143.38 162.979 143.727 162.78 144.073 162.572C144.437 162.364 144.819 162.121 145.217 161.844L145.243 161.324C145.243 160.977 145.347 160.657 145.555 160.362C145.763 160.05 145.997 159.894 146.257 159.894C146.5 159.894 146.691 160.015 146.829 160.258C146.985 160.483 147.063 160.691 147.063 160.882C146.977 162.043 146.942 163.196 146.959 164.34C146.977 165.467 147.003 166.619 147.037 167.798C147.037 168.197 146.951 168.483 146.777 168.656C146.604 168.829 146.422 168.916 146.231 168.916ZM150.391 168.838C150.235 168.838 150.105 168.777 150.001 168.656C149.897 168.535 149.802 168.387 149.715 168.214C149.646 168.023 149.585 167.824 149.533 167.616C149.499 167.408 149.473 167.217 149.455 167.044C149.369 165.935 149.334 164.834 149.351 163.742C149.369 162.633 149.421 161.541 149.507 160.466C149.542 160.171 149.62 159.929 149.741 159.738C149.88 159.53 150.062 159.452 150.287 159.504C150.53 159.591 150.738 159.799 150.911 160.128C151.085 160.457 151.163 160.795 151.145 161.142C151.093 162.147 151.05 163.205 151.015 164.314C150.981 165.423 150.981 166.576 151.015 167.772C151.033 168.032 150.989 168.275 150.885 168.5C150.799 168.725 150.634 168.838 150.391 168.838ZM138.509 161.74C137.4 161.879 136.325 162 135.285 162.104C134.245 162.191 133.24 162.321 132.269 162.494C132.027 162.529 131.801 162.529 131.593 162.494C131.385 162.459 131.255 162.312 131.203 162.052C131.169 161.913 131.195 161.731 131.281 161.506C131.368 161.263 131.585 161.099 131.931 161.012C132.365 160.891 132.841 160.787 133.361 160.7C133.881 160.613 134.41 160.544 134.947 160.492C135.485 160.423 136.022 160.388 136.559 160.388C137.097 160.371 137.617 160.379 138.119 160.414C138.466 160.449 138.717 160.544 138.873 160.7C139.047 160.839 139.142 160.977 139.159 161.116C139.177 161.272 139.116 161.411 138.977 161.532C138.856 161.636 138.7 161.705 138.509 161.74ZM138.093 164.704C138.076 165.051 138.05 165.432 138.015 165.848C137.981 166.247 137.937 166.654 137.885 167.07C137.833 167.486 137.773 167.885 137.703 168.266C137.634 168.63 137.565 168.942 137.495 169.202C138.067 168.959 138.605 168.717 139.107 168.474C139.627 168.214 140.113 167.963 140.563 167.72C140.737 167.633 140.927 167.564 141.135 167.512C141.361 167.443 141.534 167.46 141.655 167.564C141.742 167.651 141.768 167.781 141.733 167.954C141.716 168.11 141.647 168.283 141.525 168.474C141.404 168.647 141.248 168.829 141.057 169.02C140.884 169.193 140.685 169.349 140.459 169.488C140.026 169.783 139.515 170.077 138.925 170.372C138.353 170.667 137.79 170.909 137.235 171.1C136.542 171.343 136.031 171.317 135.701 171.022C135.389 170.71 135.346 170.277 135.571 169.722C135.675 169.462 135.771 169.115 135.857 168.682C135.961 168.249 136.057 167.789 136.143 167.304C136.23 166.819 136.299 166.333 136.351 165.848C136.421 165.363 136.473 164.938 136.507 164.574C136.542 164.331 136.62 164.106 136.741 163.898C136.863 163.69 137.045 163.569 137.287 163.534C137.461 163.517 137.599 163.551 137.703 163.638C137.825 163.707 137.911 163.803 137.963 163.924C138.015 164.045 138.05 164.184 138.067 164.34C138.085 164.479 138.093 164.6 138.093 164.704ZM134.453 168.266C134.488 168.613 134.505 168.89 134.505 169.098C134.523 169.306 134.436 169.462 134.245 169.566C134.089 169.653 133.951 169.679 133.829 169.644C133.708 169.592 133.595 169.523 133.491 169.436C133.405 169.332 133.327 169.228 133.257 169.124C133.188 169.003 133.145 168.907 133.127 168.838C132.989 168.491 132.885 168.11 132.815 167.694C132.746 167.278 132.694 166.853 132.659 166.42C132.642 165.969 132.642 165.527 132.659 165.094C132.694 164.661 132.746 164.262 132.815 163.898C132.85 163.742 132.937 163.577 133.075 163.404C133.214 163.231 133.405 163.161 133.647 163.196C133.769 163.213 133.873 163.274 133.959 163.378C134.046 163.465 134.115 163.577 134.167 163.716C134.219 163.855 134.254 164.002 134.271 164.158C134.306 164.314 134.315 164.453 134.297 164.574C134.297 164.851 134.297 165.155 134.297 165.484C134.315 165.796 134.332 166.117 134.349 166.446C134.367 166.775 134.384 167.096 134.401 167.408C134.419 167.72 134.436 168.006 134.453 168.266ZM157.272 156.644C157.341 156.8 157.35 156.965 157.298 157.138C157.263 157.294 157.194 157.45 157.09 157.606C156.986 157.762 156.873 157.909 156.752 158.048C156.63 158.187 156.526 158.291 156.44 158.36C156.63 158.377 156.856 158.429 157.116 158.516C157.393 158.585 157.575 158.689 157.662 158.828C157.904 159.261 157.852 159.747 157.506 160.284C157.228 160.717 156.908 161.168 156.544 161.636C156.197 162.104 155.928 162.572 155.738 163.04C156.518 162.849 157.315 162.659 158.13 162.468C158.944 162.277 159.811 162.139 160.73 162.052C160.868 162.052 160.981 162.087 161.068 162.156C161.154 162.208 161.206 162.269 161.224 162.338C161.293 162.581 161.241 162.789 161.068 162.962C160.894 163.135 160.669 163.265 160.392 163.352C159.594 163.56 158.84 163.768 158.13 163.976C157.419 164.184 156.596 164.435 155.66 164.73C155.157 164.817 154.732 164.765 154.386 164.574C154.056 164.366 153.848 164.071 153.762 163.69C153.71 163.465 153.77 163.179 153.944 162.832C154.117 162.468 154.325 162.104 154.568 161.74C154.81 161.359 155.062 161.003 155.322 160.674C155.582 160.345 155.772 160.085 155.894 159.894C155.79 159.894 155.59 159.911 155.296 159.946C155.018 159.963 154.819 159.981 154.698 159.998C154.42 160.033 154.169 159.981 153.944 159.842C153.736 159.686 153.649 159.469 153.684 159.192C153.701 159.019 153.796 158.863 153.97 158.724C154.16 158.568 154.36 158.421 154.568 158.282C154.776 158.143 154.975 158.005 155.166 157.866C155.374 157.71 155.521 157.545 155.608 157.372C155.729 157.129 155.677 156.947 155.452 156.826C155.226 156.705 154.992 156.627 154.75 156.592C154.507 156.557 154.273 156.505 154.048 156.436C153.562 156.297 153.328 156.003 153.346 155.552C153.346 155.413 153.389 155.309 153.476 155.24C153.562 155.171 153.658 155.127 153.762 155.11C153.883 155.075 154.004 155.067 154.126 155.084C154.264 155.084 154.386 155.093 154.49 155.11C155.079 155.197 155.642 155.379 156.18 155.656C156.717 155.916 157.081 156.245 157.272 156.644ZM161.51 170.84C161.302 171.169 161.007 171.533 160.626 171.932C160.244 172.331 159.88 172.677 159.534 172.972C159.724 172.972 159.941 172.981 160.184 172.998C160.426 172.998 160.652 173.024 160.86 173.076C161.085 173.128 161.267 173.215 161.406 173.336C161.562 173.457 161.64 173.631 161.64 173.856C161.64 174.081 161.527 174.367 161.302 174.714C161.076 175.043 160.816 175.373 160.522 175.702C160.244 176.049 159.958 176.361 159.664 176.638C159.386 176.933 159.196 177.141 159.092 177.262C159.802 177.123 160.522 176.959 161.25 176.768C161.995 176.577 162.81 176.352 163.694 176.092C164.318 175.901 164.777 175.91 165.072 176.118C165.245 176.257 165.314 176.387 165.28 176.508C165.262 176.647 165.184 176.768 165.046 176.872C164.924 176.993 164.786 177.097 164.63 177.184C164.474 177.271 164.361 177.331 164.292 177.366C163.824 177.591 163.312 177.791 162.758 177.964C162.203 178.155 161.648 178.319 161.094 178.458C160.539 178.614 160.002 178.735 159.482 178.822C158.962 178.926 158.485 179.004 158.052 179.056C157.809 179.091 157.575 179.065 157.35 178.978C157.124 178.909 156.916 178.761 156.726 178.536C156.622 178.415 156.57 178.267 156.57 178.094C156.587 177.921 156.656 177.765 156.778 177.626C157.246 177.123 157.688 176.586 158.104 176.014C158.537 175.459 158.944 174.913 159.326 174.376C159.135 174.393 158.892 174.419 158.598 174.454C158.32 174.489 158.095 174.523 157.922 174.558C157.176 174.679 156.752 174.541 156.648 174.142C156.596 173.934 156.613 173.735 156.7 173.544C156.804 173.353 156.925 173.206 157.064 173.102C157.601 172.669 158.06 172.279 158.442 171.932C158.823 171.568 159.196 171.178 159.56 170.762C159.265 170.779 158.901 170.866 158.468 171.022C158.052 171.161 157.705 171.282 157.428 171.386C157.081 171.525 156.838 171.533 156.7 171.412C156.561 171.291 156.492 171.152 156.492 170.996C156.492 170.84 156.526 170.675 156.596 170.502C156.682 170.329 156.812 170.19 156.986 170.086C157.592 169.687 158.234 169.436 158.91 169.332C159.586 169.228 160.201 169.219 160.756 169.306C161.189 169.375 161.475 169.566 161.614 169.878C161.752 170.173 161.718 170.493 161.51 170.84ZM163.044 165.926C163.13 166.047 163.148 166.177 163.096 166.316C163.061 166.437 162.983 166.55 162.862 166.654C162.758 166.758 162.628 166.845 162.472 166.914C162.316 166.983 162.177 167.027 162.056 167.044C161.57 167.096 161.111 167.148 160.678 167.2C160.244 167.252 159.794 167.321 159.326 167.408C158.858 167.495 158.338 167.607 157.766 167.746C157.194 167.885 156.526 168.058 155.764 168.266C155.348 168.387 154.992 168.396 154.698 168.292C154.42 168.171 154.238 168.041 154.152 167.902C154.082 167.781 154.056 167.659 154.074 167.538C154.091 167.417 154.126 167.304 154.178 167.2C154.23 167.096 154.29 167.009 154.36 166.94C154.446 166.871 154.524 166.827 154.594 166.81C155.651 166.498 156.708 166.221 157.766 165.978C158.823 165.735 159.863 165.588 160.886 165.536C161.059 165.536 161.258 165.545 161.484 165.562C161.709 165.562 161.926 165.579 162.134 165.614C162.342 165.649 162.532 165.692 162.706 165.744C162.879 165.796 162.992 165.857 163.044 165.926Z" fill="black"/>
<path d="M181.697 157.918C181.402 158.317 181.099 158.715 180.787 159.114C180.492 159.513 180.198 159.929 179.903 160.362C179.955 160.362 179.998 160.371 180.033 160.388C180.085 160.388 180.137 160.397 180.189 160.414C180.362 160.483 180.579 160.596 180.839 160.752C181.116 160.891 181.394 161.047 181.671 161.22C181.966 161.376 182.252 161.549 182.529 161.74C182.824 161.913 183.075 162.069 183.283 162.208C183.37 162.277 183.474 162.364 183.595 162.468C183.716 162.572 183.82 162.685 183.907 162.806C184.011 162.927 184.08 163.057 184.115 163.196C184.15 163.317 184.132 163.43 184.063 163.534C183.976 163.638 183.803 163.716 183.543 163.768C183.3 163.82 183.014 163.751 182.685 163.56C182.217 163.3 181.732 163.005 181.229 162.676C180.726 162.329 180.241 162.026 179.773 161.766C179.565 161.679 179.392 161.532 179.253 161.324C179.062 161.601 178.872 161.887 178.681 162.182C178.508 162.477 178.326 162.771 178.135 163.066C177.806 163.603 177.572 164.011 177.433 164.288C177.294 164.548 177.086 164.652 176.809 164.6C176.618 164.565 176.48 164.487 176.393 164.366C176.306 164.227 176.254 164.071 176.237 163.898C176.237 163.725 176.254 163.551 176.289 163.378C176.341 163.187 176.393 163.014 176.445 162.858C176.185 162.667 175.916 162.451 175.639 162.208C175.362 161.965 175.067 161.671 174.755 161.324C174.686 161.255 174.608 161.159 174.521 161.038C174.434 160.917 174.356 160.795 174.287 160.674C174.235 160.553 174.2 160.431 174.183 160.31C174.183 160.171 174.235 160.05 174.339 159.946C174.426 159.842 174.59 159.773 174.833 159.738C175.093 159.686 175.353 159.807 175.613 160.102C175.821 160.345 176.055 160.587 176.315 160.83C176.592 161.055 176.878 161.289 177.173 161.532C177.624 160.769 178.135 159.989 178.707 159.192C179.296 158.395 179.903 157.632 180.527 156.904C180.596 156.817 180.726 156.722 180.917 156.618C181.125 156.497 181.342 156.505 181.567 156.644C181.758 156.765 181.87 156.947 181.905 157.19C181.957 157.433 181.888 157.675 181.697 157.918ZM176.341 170.71C176.046 170.745 175.743 170.736 175.431 170.684C175.136 170.615 174.946 170.459 174.859 170.216C174.79 170.025 174.833 169.826 174.989 169.618C175.162 169.393 175.414 169.237 175.743 169.15C175.934 169.115 176.185 169.063 176.497 168.994C176.826 168.907 177.19 168.812 177.589 168.708C177.606 168.309 177.667 167.746 177.771 167.018C177.875 166.273 178.048 165.545 178.291 164.834C178.326 164.695 178.404 164.574 178.525 164.47C178.664 164.349 178.828 164.305 179.019 164.34C179.21 164.375 179.374 164.487 179.513 164.678C179.669 164.851 179.73 165.033 179.695 165.224C179.556 165.848 179.452 166.377 179.383 166.81C179.314 167.243 179.27 167.737 179.253 168.292C179.894 168.119 180.501 167.954 181.073 167.798C181.645 167.642 182.078 167.495 182.373 167.356C182.494 167.304 182.642 167.269 182.815 167.252C182.988 167.235 183.153 167.243 183.309 167.278C183.465 167.295 183.604 167.356 183.725 167.46C183.846 167.547 183.924 167.677 183.959 167.85C183.994 168.023 183.942 168.205 183.803 168.396C183.664 168.569 183.5 168.699 183.309 168.786C182.962 168.942 182.477 169.124 181.853 169.332C181.229 169.54 180.562 169.739 179.851 169.93C179.158 170.121 178.49 170.294 177.849 170.45C177.208 170.589 176.705 170.675 176.341 170.71ZM182.451 176.638C182.416 176.759 182.304 176.915 182.113 177.106C181.922 177.314 181.68 177.392 181.385 177.34C181.229 177.305 181.082 177.201 180.943 177.028C180.822 176.872 180.787 176.664 180.839 176.404C180.926 175.901 181.004 175.347 181.073 174.74C181.16 174.116 181.212 173.553 181.229 173.05C180.813 173.154 180.354 173.301 179.851 173.492C179.366 173.683 178.924 173.856 178.525 174.012C178.3 174.099 178.074 174.116 177.849 174.064C177.641 173.995 177.494 173.847 177.407 173.622C177.338 173.431 177.355 173.249 177.459 173.076C177.58 172.885 177.71 172.747 177.849 172.66C178.005 172.556 178.23 172.435 178.525 172.296C178.82 172.157 179.123 172.027 179.435 171.906C179.764 171.767 180.076 171.655 180.371 171.568C180.683 171.481 180.943 171.429 181.151 171.412C181.74 171.377 182.182 171.499 182.477 171.776C182.789 172.053 182.936 172.443 182.919 172.946C182.919 173.206 182.902 173.501 182.867 173.83C182.85 174.159 182.815 174.497 182.763 174.844C182.728 175.173 182.685 175.494 182.633 175.806C182.581 176.118 182.52 176.395 182.451 176.638ZM176.133 156.826C175.509 157.623 174.92 158.447 174.365 159.296C173.828 160.128 173.36 161.09 172.961 162.182C172.857 162.477 172.779 162.754 172.727 163.014C172.675 163.257 172.623 163.465 172.571 163.638C172.519 163.811 172.441 163.95 172.337 164.054C172.25 164.141 172.12 164.184 171.947 164.184C171.652 164.132 171.444 164.002 171.323 163.794C171.202 163.569 171.132 163.335 171.115 163.092C171.115 162.832 171.141 162.589 171.193 162.364C171.245 162.121 171.288 161.939 171.323 161.818C171.687 160.778 172.172 159.747 172.779 158.724C173.386 157.701 174.088 156.748 174.885 155.864C174.92 155.829 174.972 155.786 175.041 155.734C175.11 155.665 175.188 155.604 175.275 155.552C175.379 155.5 175.483 155.474 175.587 155.474C175.708 155.457 175.83 155.483 175.951 155.552C176.142 155.656 176.263 155.829 176.315 156.072C176.384 156.315 176.324 156.566 176.133 156.826ZM186.859 158.048C186.772 157.84 186.651 157.641 186.495 157.45C186.339 157.259 186.217 157.008 186.131 156.696C186.009 156.297 185.992 155.942 186.079 155.63C186.183 155.318 186.356 155.101 186.599 154.98C186.824 154.876 187.041 154.841 187.249 154.876C187.457 154.911 187.647 154.997 187.821 155.136C187.994 155.257 188.141 155.431 188.263 155.656C188.384 155.864 188.471 156.098 188.523 156.358C188.592 156.774 188.601 157.268 188.549 157.84C188.514 158.412 188.427 158.993 188.289 159.582C188.15 160.154 187.959 160.717 187.717 161.272C187.491 161.809 187.231 162.269 186.937 162.65C186.815 162.806 186.685 162.901 186.547 162.936C186.408 162.953 186.287 162.936 186.183 162.884C186.079 162.815 186.001 162.719 185.949 162.598C185.914 162.459 185.931 162.321 186.001 162.182C186.174 161.835 186.321 161.515 186.443 161.22C186.564 160.925 186.659 160.631 186.729 160.336C186.815 160.041 186.876 159.747 186.911 159.452C186.945 159.14 186.963 158.811 186.963 158.464C186.963 158.325 186.928 158.187 186.859 158.048Z" fill="#045211"/>
<path d="M38.9281 28.4073L42.1602 29.4474C41.3522 31.3536 41.0046 33.4307 41.1204 35.5108L41.4071 39.8997L38.0011 40.4762C37.7694 35.1631 36.4399 31.6403 30.4361 31.6403C22.4107 31.6403 19.6969 39.6679 19.6969 46.3688C19.6969 52.8958 22.5814 61.2101 30.3202 61.2101C36.2113 61.2101 38.4036 57.2817 38.4036 51.8557H41.9834V59.2489C38.7512 62.3691 34.708 64.4461 30.1464 64.4461C23.9109 64.4461 15.9434 59.6515 15.9434 46.079C15.9434 32.8512 23.9139 28.4043 30.2623 28.4043C32.9761 28.4043 35.8057 29.1546 38.1719 30.3685L38.9281 28.4073Z" fill="#105227"/>
<path d="M88.6977 60.5174H91.5852V63.7504H79.9221V60.5174H84.8892L82.1175 53.0662H68.3749L65.6611 60.5174H70.6831V63.7504H59.1328V60.5174H62.0204L75.1288 25.8633L88.6977 60.5174ZM75.1288 33.9488L69.4695 49.8332H80.9588L75.1288 33.9488Z" fill="#105227"/>
<path d="M135.321 29.0996V39.1494H131.742V37.6488C131.742 33.028 131.51 32.3357 126.948 32.3357H117.249V44.1758H125.158V39.2653H128.738V52.8378H125.158V47.4088H117.249V60.5207H127.412V63.7537H108.01V60.5207H113.669V32.3326H108.01V29.0996H135.321Z" fill="#105227"/>
<path d="M163.067 32.3326V43.2486H170.976V38.396H174.556V51.9106H170.976V46.4816H163.067V60.5177H173.864C178.252 60.5177 178.657 59.9961 178.657 53.585V52.487H182.237V63.7507H153.715V60.5177H159.49V32.3326H153.715V29.0996H181.142V39.1494H177.562V37.6488C177.562 32.8542 177.389 32.3357 172.83 32.3357H163.067V32.3326Z" fill="#105227"/>
<path d="M29.4568 90.6419C31.5364 90.6419 34.1343 91.1634 35.9821 92.1425L36.3297 89.8916L39.7936 90.526L39.2721 96.3027C39.0983 98.0351 39.446 99.7096 39.7936 101.384L36.2718 101.906C36.1559 100.289 36.2138 97.9771 35.4637 96.5345C34.366 94.5123 31.9419 93.8779 29.344 93.8779C26.1698 93.8779 21.7241 95.3816 21.7241 99.7706C21.7241 109.07 40.3729 103.986 40.3729 116.924C40.3729 122.758 35.3479 126.684 28.8226 126.684C25.6484 126.684 23.5109 126.049 20.7392 124.604L20.5654 126.739L17.1016 126.278L17.6779 120.157C17.8517 118.424 17.4461 116.692 17.1016 115.017L20.5654 114.496L20.913 117.268C21.4344 121.368 23.7427 123.448 29.1123 123.448C32.5182 123.448 36.6163 121.657 36.6163 117.268C36.6163 106.987 17.9675 112.648 17.9675 99.9993C17.9675 93.7621 23.8555 90.6419 29.4568 90.6419Z" fill="#105227"/>
<path d="M64.1932 90.6419C66.2727 90.6419 68.8706 91.1634 70.7184 92.1425L71.066 89.8916L74.5299 90.526L74.0085 96.3027C73.8347 98.0351 74.1823 99.7096 74.5299 101.384L71.0081 101.906C70.8922 100.289 70.9502 97.9771 70.2001 96.5345C69.1024 94.5123 66.6783 93.8779 64.0773 93.8779C60.9031 93.8779 56.4574 95.3816 56.4574 99.7706C56.4574 109.07 75.1062 103.986 75.1062 116.924C75.1062 122.758 70.0842 126.684 63.5589 126.684C60.3817 126.684 58.2473 126.049 55.4756 124.604L55.3018 126.739L51.8379 126.278L52.4142 120.157C52.588 118.424 52.1824 116.692 51.8379 115.017L55.3018 114.496L55.6494 117.268C56.1708 121.368 58.479 123.448 63.8486 123.448C67.2576 123.448 71.3557 121.657 71.3557 117.268C71.3557 106.987 52.7069 112.648 52.7069 99.9993C52.7039 93.7621 58.5918 90.6419 64.1932 90.6419Z" fill="#105227"/>
<path d="M125.641 110.278V107.045H140.539V110.278H125.641Z" fill="#105227"/>
<path d="M164.826 91.3379V94.5709H160.149V107.277C163.786 106.643 169.33 101.558 173.775 94.5709H169.561V91.3379H182.435V94.5709H177.816C174.87 99.4234 171.348 104.215 166.729 107.625L178.913 122.756H184.051V125.989H170.833V122.756H174.297L163.558 109.415C162.518 109.992 161.362 110.339 160.152 110.51V122.756H164.829V125.989H151.895V122.756H156.572V94.5709H151.895V91.3379H164.826Z" fill="#105227"/>
<path d="M97.3169 93.4881C97.3443 93.4118 97.3779 93.3417 97.4206 93.2715C97.6462 92.8872 98.4603 91.3897 98.1859 90.2947C98.0518 89.7518 97.4907 89.4163 96.9327 89.4407C94.4171 89.5627 85.3855 91.3012 84.7695 109.876C84.7695 109.912 84.7695 109.949 84.7695 109.989C84.8183 111.117 85.791 129.817 97.4389 127.999C98.0182 127.907 98.439 127.407 98.4817 126.825C98.6585 124.406 98.7561 117.687 95.7557 108.146C95.7557 108.146 93.9506 102.626 97.3169 93.4881Z" fill="#A3601F"/>
<path d="M103.013 90.1997C103.013 90.1997 102.559 89.8581 102.101 90.1997C102.101 90.1997 96.067 93.4998 100.183 109.11C100.183 109.11 102.019 114.795 100.897 126.434C100.879 126.629 100.912 126.827 101.01 126.995C101.275 127.443 101.937 128.251 103.226 128.123C103.226 128.123 104.193 127.992 105.745 126.498C105.901 126.351 106.059 126.19 106.218 126.019C106.239 125.998 106.257 125.982 106.276 125.958C106.294 125.94 106.3 125.927 106.318 125.909C108.572 123.451 111.285 118.376 111.642 108.076C111.642 108.076 111.911 95.2871 103.013 90.1997Z" fill="#A3601F"/>
</svg>
