<svg width="200" height="200" viewBox="0 0 200 200" fill="none" xmlns="http://www.w3.org/2000/svg">
<rect width="200" height="200" fill="white"/>
<path d="M41.1149 98.3822C42.5259 98.3822 43.6709 97.2377 43.6709 95.8244V86.013C43.6709 85.6098 43.6533 85.1998 43.6193 84.7966C42.9939 77.3664 36.6665 71.5464 29.2143 71.5464H24.4538C22.0064 71.5464 19.5821 72.1777 17.4453 73.3696C12.8531 75.9355 10 80.7794 10 86.013V142.933C10 150.909 16.4848 157.399 24.4552 157.399H29.2157C37.1861 157.399 43.6709 150.909 43.6709 142.933V129.865C43.6709 128.453 42.5272 127.307 41.1149 127.307C39.7027 127.307 38.559 128.452 38.559 129.865V142.933C38.559 148.09 34.3669 152.283 29.2157 152.283H24.4552C19.3026 152.283 15.1119 148.088 15.1119 142.933V117.03H40.0893C41.5002 117.03 42.6453 115.886 42.6453 114.473C42.6453 113.059 41.5016 111.915 40.0893 111.915H15.1119V86.0117C15.1119 82.6312 16.961 79.4992 19.9375 77.8362C21.3145 77.0664 22.8774 76.6605 24.4552 76.6605H29.2157C34.0318 76.6605 38.1222 80.4224 38.5264 85.2242C38.5481 85.4849 38.559 85.7496 38.559 86.0103V95.8217C38.559 97.2336 39.7027 98.3794 41.1149 98.3794V98.3822Z" fill="#36A500"/>
<path d="M85.4288 124.519C85.4288 127.944 84.6664 130.855 83.1428 133.252C81.6193 135.65 79.5653 137.545 76.9823 138.937C74.7302 140.13 72.257 140.97 69.5627 141.455C66.8684 141.941 64.307 142.184 61.8786 142.184L62.0115 157.397H56.745C56.7667 157.021 56.7952 153.967 56.8278 148.233C56.8603 142.5 56.878 136.749 56.878 130.981C56.878 128.087 56.8671 124.722 56.8454 120.889C56.8237 117.055 56.7898 112.929 56.7464 108.509C57.4532 108.487 58.1546 108.476 58.8492 108.476H60.4555C65.0925 108.476 68.6917 108.719 71.2531 109.205C73.8145 109.691 76.1438 110.553 78.2412 111.79C80.4716 113.095 82.2271 114.834 83.5078 117.01C84.7885 119.186 85.4288 121.69 85.4288 124.517V124.519ZM80.1297 124.702C80.1297 122.539 79.621 120.641 78.6062 119.008C77.59 117.375 76.2659 116.084 74.6312 115.135C73.1511 114.296 71.4674 113.684 69.5803 113.298C67.6932 112.913 65.6447 112.718 63.436 112.718H61.9451C61.9451 113.095 61.9288 114.402 61.8949 116.642C61.8623 118.882 61.8447 122.748 61.8447 128.244C61.8447 129.391 61.8501 131.003 61.861 133.077C61.8718 135.152 61.8772 136.806 61.8772 138.042C63.9529 138.042 66.0286 137.849 68.1043 137.464C70.18 137.077 71.8907 136.553 73.2379 135.891C75.4899 134.788 77.2007 133.322 78.3715 131.489C79.5409 129.657 80.127 127.396 80.127 124.703L80.1297 124.702Z" fill="#36A500"/>
<path d="M159.291 139.766C159.291 142.329 158.832 144.782 157.916 147.124C156.999 149.466 155.681 151.466 153.959 153.124C152.502 154.515 150.883 155.577 149.106 156.306C147.329 157.035 145.314 157.4 143.061 157.4C140.942 157.4 138.954 157.04 137.098 156.323C135.243 155.607 133.587 154.55 132.13 153.157C130.452 151.545 129.155 149.556 128.238 147.191C127.321 144.827 126.864 142.331 126.864 139.7C126.864 137.068 127.256 134.822 128.04 132.689C128.824 130.556 130.044 128.64 131.7 126.938C133.179 125.392 134.902 124.204 136.868 123.374C138.832 122.546 140.909 122.131 143.095 122.131C145.392 122.131 147.471 122.512 149.338 123.274C151.204 124.037 152.866 125.18 154.323 126.705C156.001 128.45 157.248 130.412 158.066 132.587C158.882 134.763 159.291 137.155 159.291 139.763V139.766ZM153.992 139.998C153.992 137.921 153.655 135.9 152.981 133.932C152.307 131.967 151.263 130.309 149.851 128.961C148.99 128.122 147.968 127.476 146.788 127.022C145.606 126.57 144.376 126.343 143.095 126.343C141.571 126.343 140.246 126.586 139.12 127.072C137.994 127.558 136.934 128.321 135.94 129.36C134.769 130.553 133.848 132.078 133.174 133.934C132.499 135.79 132.163 137.712 132.163 139.701C132.163 141.955 132.505 144.026 133.19 145.916C133.874 147.806 134.978 149.435 136.502 150.805C137.363 151.579 138.356 152.169 139.482 152.578C140.608 152.986 141.801 153.191 143.06 153.191C144.45 153.191 145.747 152.948 146.952 152.462C148.155 151.976 149.209 151.269 150.116 150.342C151.375 149.06 152.335 147.514 152.997 145.702C153.659 143.89 153.99 141.99 153.99 140.001L153.992 139.998Z" fill="#36A500"/>
<path d="M189.996 147.356C189.996 148.992 189.597 150.45 188.802 151.732C188.006 153.014 186.967 154.052 185.684 154.848C184.335 155.688 182.736 156.322 180.89 156.754C179.044 157.184 177.003 157.4 174.77 157.4C173.686 157.4 172.564 157.35 171.403 157.251C170.242 157.152 169.584 157.09 169.43 157.069L169.231 152.727C169.429 152.749 170.197 152.81 171.533 152.909C172.869 153.008 174.199 153.058 175.524 153.058C176.298 153.058 177.291 152.992 178.505 152.86C179.719 152.727 180.725 152.484 181.52 152.131C182.624 151.645 183.441 151.049 183.971 150.342C184.501 149.634 184.766 148.785 184.766 147.79C184.766 146.884 184.534 146.15 184.07 145.585C183.606 145.02 182.966 144.474 182.149 143.945C181.266 143.349 180.057 142.713 178.523 142.039C176.988 141.365 175.702 140.719 174.664 140.1C173.184 139.195 172.053 138.123 171.27 136.885C170.486 135.648 170.094 134.212 170.094 132.576C170.094 130.94 170.541 129.471 171.437 128.168C172.332 126.865 173.533 125.815 175.037 125.02C176.343 124.312 177.786 123.843 179.367 123.611C180.948 123.378 182.48 123.263 183.963 123.263C185.311 123.263 186.417 123.285 187.28 123.33C188.143 123.374 188.641 123.396 188.774 123.396L189.139 127.804C188.984 127.804 188.303 127.761 187.097 127.671C185.891 127.583 184.568 127.538 183.13 127.538C182.111 127.538 181.144 127.626 180.225 127.803C179.307 127.979 178.527 128.233 177.885 128.566C176.933 129.052 176.253 129.638 175.843 130.323C175.434 131.008 175.229 131.671 175.229 132.311C175.229 133.195 175.516 133.958 176.092 134.599C176.667 135.24 177.342 135.781 178.117 136.223C179.025 136.754 180.263 137.382 181.834 138.112C183.405 138.842 184.545 139.428 185.253 139.869C186.802 140.841 187.98 141.925 188.788 143.118C189.596 144.311 190 145.726 190 147.361L189.996 147.356Z" fill="#36A500"/>
<path d="M100.596 61.9142C100.519 60.9774 100.442 60.0515 100.367 59.1256C100.363 59.07 100.364 59.0116 100.367 58.9559C100.37 58.8636 100.374 58.7672 100.349 58.6776C100.188 58.0558 100.568 57.7599 101.047 57.4666H102.146L102.61 57.5997C103.615 57.8834 104.621 58.1672 105.628 58.4482C105.647 58.4536 105.669 58.4563 105.692 58.4563C105.728 58.4563 105.769 58.4496 105.814 58.4373C106.72 58.1753 107.625 57.9106 108.531 57.6458L109.151 57.4653H110.238C110.699 57.7667 110.9 58.1835 110.87 58.774C110.844 59.2804 110.85 59.7909 110.855 60.3312C110.858 60.5606 110.861 60.7968 110.861 61.0412C110.497 61.01 110.124 60.9951 109.748 60.9951C107.518 60.9951 105.357 61.549 103.268 62.0839C102.418 62.3011 101.54 62.5264 100.663 62.7138L100.596 61.9169V61.9142Z" fill="#36A500"/>
<path d="M110.226 57.5074C110.667 57.7993 110.859 58.2011 110.83 58.7713C110.804 59.279 110.809 59.7895 110.815 60.3298C110.817 60.5457 110.82 60.767 110.82 60.9964C110.469 60.9679 110.109 60.953 109.748 60.953C107.512 60.953 105.349 61.5069 103.257 62.0431C102.422 62.2563 101.561 62.4776 100.699 62.6622L100.636 61.8856C100.558 60.957 100.482 60.0393 100.409 59.1216C100.405 59.0686 100.406 59.0143 100.409 58.9559C100.412 58.8609 100.416 58.7618 100.39 58.6668C100.235 58.0735 100.584 57.7979 101.06 57.506H102.136L102.669 57.6567C103.653 57.9337 104.635 58.212 105.619 58.4862C105.642 58.493 105.666 58.4957 105.693 58.4957C105.733 58.4957 105.777 58.4889 105.826 58.4753C106.764 58.2038 107.7 57.9309 108.636 57.6567L109.151 57.506H110.226M110.25 57.4259H109.14C108.028 57.7504 106.916 58.0749 105.803 58.398C105.769 58.4075 105.73 58.4156 105.693 58.4156C105.674 58.4156 105.657 58.4143 105.64 58.4088C104.475 58.083 103.311 57.7545 102.147 57.4259H101.037C100.566 57.7137 100.14 58.0219 100.313 58.6871C100.349 58.8256 100.318 58.9817 100.329 59.1284C100.427 60.3298 100.527 61.5313 100.627 62.7599C103.691 62.111 106.609 61.0331 109.75 61.0331C110.131 61.0331 110.513 61.0494 110.901 61.0833C110.901 60.243 110.873 59.5071 110.911 58.774C110.941 58.1807 110.743 57.7422 110.25 57.4259Z" fill="#36A500"/>
<path d="M105.617 157.359L105.012 155.193L106.41 154.997L105.777 157.359H105.617Z" fill="#36A500"/>
<path d="M106.355 155.046L105.746 157.319H105.646L105.06 155.226L106.353 155.046M106.461 154.95C105.89 155.03 105.467 155.088 104.958 155.16C105.18 155.956 105.383 156.678 105.583 157.399H105.806C106.016 156.611 106.228 155.822 106.461 154.95Z" fill="#36A500"/>
<path d="M100.747 120.56C100.433 120.409 100.124 120.265 99.8175 120.122C99.1066 119.79 98.4351 119.477 97.7758 119.117C95.4247 117.833 93.832 116.437 92.7629 114.725C91.7725 113.139 91.314 111.368 91.3588 109.307C91.451 105.059 93.5688 101.754 97.8341 99.2076C100.109 97.8486 102.616 96.9092 105.042 96.0009C105.442 95.8516 105.842 95.7009 106.241 95.5502C107.507 95.0696 108.767 94.5157 109.988 93.9794L110.674 93.6794C111.017 93.5301 111.334 93.2925 111.614 93.0834C112.33 92.5485 112.718 91.9077 112.736 91.2317C112.753 90.5732 112.417 89.9365 111.76 89.3894C111.35 89.0473 111.211 88.7282 111.227 88.1716C111.269 86.7855 111.275 85.3763 111.279 84.0133C111.28 83.4947 111.283 82.9747 111.287 82.4561C111.287 82.3285 111.287 82.2022 111.287 82.0271V81.7474C111.661 81.9646 112.029 82.1737 112.388 82.3773C113.217 82.8471 113.999 83.291 114.757 83.7798C116.58 84.9568 117.778 86.1881 118.526 87.6571C120.015 90.5854 119.748 93.4445 117.732 96.153C116.446 97.8798 114.692 99.2565 112.211 100.482C110.729 101.214 109.2 101.911 107.721 102.585C106.479 103.151 105.193 103.738 103.942 104.342C102.372 105.1 101.132 105.792 100.04 106.524C98.431 107.6 98.0742 108.87 98.0579 109.745C98.0335 111.1 98.8014 112.508 100.063 113.419C100.459 113.705 100.618 114.001 100.625 114.471C100.646 115.799 100.684 117.148 100.722 118.454C100.739 119.031 100.755 119.607 100.77 120.184C100.771 120.249 100.766 120.313 100.758 120.412C100.754 120.455 100.75 120.506 100.745 120.563L100.747 120.56Z" fill="#36A500"/>
<path d="M111.329 81.8139C111.683 82.0189 112.033 82.2172 112.371 82.4086C113.198 82.8783 113.98 83.3209 114.738 83.8096C116.556 84.9826 117.748 86.2099 118.492 87.672C119.973 90.5854 119.707 93.4296 117.702 96.1258C116.42 97.8486 114.67 99.2198 112.194 100.443C110.713 101.175 109.184 101.873 107.705 102.546C106.462 103.112 105.178 103.699 103.927 104.303C102.356 105.062 101.114 105.755 100.02 106.487C98.3958 107.573 98.0362 108.856 98.02 109.741C97.9955 111.11 98.7702 112.53 100.041 113.449C100.427 113.727 100.58 114.014 100.587 114.47C100.608 115.798 100.646 117.147 100.684 118.452C100.701 119.029 100.717 119.606 100.732 120.181C100.733 120.244 100.728 120.307 100.72 120.405C100.717 120.434 100.714 120.464 100.712 120.498C100.414 120.355 100.12 120.218 99.8325 120.083C99.1229 119.752 98.4514 119.439 97.7948 119.08C95.4505 117.8 93.8618 116.408 92.7968 114.702C91.8119 113.123 91.3547 111.358 91.3981 109.305C91.4904 105.072 93.6013 101.779 97.8545 99.2388C100.127 97.8812 102.633 96.9431 105.056 96.0362C105.456 95.8869 105.856 95.7362 106.255 95.5855C107.522 95.1049 108.784 94.5496 110.005 94.0134C110.233 93.9129 110.461 93.8138 110.688 93.7134C111.036 93.5613 111.355 93.3224 111.637 93.1119C112.363 92.5689 112.757 91.9186 112.775 91.2289C112.793 90.5583 112.451 89.9093 111.786 89.3541C111.387 89.0215 111.251 88.7106 111.268 88.1689C111.31 86.7828 111.315 85.3722 111.319 84.0092C111.321 83.4906 111.323 82.9706 111.327 82.452C111.327 82.3244 111.327 82.1981 111.327 82.023V81.8112M111.247 81.6714C111.247 82.0542 111.247 82.2525 111.247 82.4507C111.234 84.3554 111.245 86.2615 111.188 88.1662C111.171 88.7147 111.302 89.0541 111.734 89.4152C113.079 90.5379 112.997 91.9933 111.588 93.0468C111.294 93.2667 110.99 93.4921 110.656 93.6387C109.188 94.2808 107.724 94.9406 106.226 95.5095C103.362 96.5969 100.462 97.588 97.8137 99.1696C93.9649 101.468 91.4212 104.604 91.3194 109.303C91.2774 111.245 91.6871 113.073 92.729 114.743C93.9636 116.721 95.7584 118.058 97.7568 119.149C98.72 119.675 99.7321 120.112 100.782 120.618C100.798 120.389 100.813 120.283 100.811 120.177C100.76 118.274 100.697 116.369 100.665 114.466C100.657 113.978 100.49 113.673 100.086 113.381C97.9874 111.865 96.9428 108.638 100.062 106.551C101.295 105.725 102.62 105.018 103.958 104.372C106.697 103.05 109.501 101.859 112.227 100.512C114.36 99.4587 116.319 98.1134 117.763 96.172C119.751 93.5016 120.083 90.6302 118.561 87.634C117.71 85.9614 116.332 84.7423 114.779 83.7404C113.67 83.0263 112.504 82.4031 111.246 81.6728L111.247 81.6714Z" fill="#36A500"/>
<path d="M100.314 85.2718C98.3469 84.7396 95.7923 83.9698 93.3802 82.7195C91.8241 81.913 90.6153 81.0102 89.686 79.9567C88.3171 78.4077 87.6307 76.4894 87.7528 74.5575C87.8762 72.623 88.8015 70.8051 90.3603 69.438C92.01 67.9908 93.969 66.9197 96.1844 66.2531C99.5313 65.2457 103.323 64.1053 107.073 63.3464C108.321 63.0939 109.547 62.9663 110.716 62.9663C112.448 62.9663 114.104 63.2473 115.636 63.8026C116.948 64.2778 117.88 64.8765 118.567 65.6883C119.311 66.5667 119.595 67.5917 119.367 68.5732C119.138 69.5616 118.424 70.3612 117.359 70.8255C116.153 71.3509 114.834 71.6061 113.33 71.6061C112.938 71.6061 112.527 71.5885 112.106 71.5532C111.106 71.469 110.096 71.2911 109.119 71.1201C108.577 71.0251 108.019 70.9273 107.466 70.8458C107.12 70.7943 106.766 70.7685 106.414 70.7685C106.302 70.7685 106.192 70.7712 106.083 70.7766C105.67 70.7956 105.256 70.8119 104.843 70.8282C103.505 70.8811 102.121 70.9368 100.771 71.0889C98.8733 71.302 97.4339 71.7405 96.24 72.4668C95.7883 72.7424 95.3813 73.1117 95.0923 73.5068C94.7138 74.0267 94.5754 74.5508 94.6921 75.0205C94.8033 75.4712 95.1452 75.8473 95.6797 76.1093C96.8776 76.6971 98.1 77.1614 99.4607 77.6637L99.6032 77.7153C100.038 77.8737 100.258 78.2149 100.263 78.739C100.277 80.288 100.291 81.8357 100.305 83.3847L100.315 84.6771C100.315 84.8088 100.315 84.9392 100.315 85.0858V85.2704L100.314 85.2718Z" fill="#36A500"/>
<path d="M110.714 63.0057C112.443 63.0057 114.094 63.2867 115.621 63.8406C116.926 64.3131 117.853 64.909 118.535 65.7141C119.271 66.583 119.553 67.5944 119.328 68.5637C119.101 69.5398 118.396 70.33 117.343 70.7888C116.142 71.3115 114.829 71.5667 113.33 71.5667C112.939 71.5667 112.528 71.5491 112.109 71.5138C111.11 71.4296 110.101 71.2531 109.124 71.0821C108.583 70.987 108.024 70.8893 107.47 70.8078C107.123 70.7562 106.766 70.7305 106.412 70.7305C106.301 70.7305 106.188 70.7332 106.079 70.7386C105.666 70.7576 105.252 70.7739 104.839 70.7902C103.501 70.8431 102.116 70.8988 100.764 71.0508C98.8611 71.2653 97.4162 71.7052 96.217 72.4342C95.7611 72.7112 95.3487 73.0845 95.0584 73.485C94.6731 74.0145 94.532 74.5494 94.6514 75.0327C94.7653 75.4943 95.114 75.8799 95.6607 76.1473C96.8587 76.7351 98.0837 77.1994 99.4458 77.7045L99.5882 77.7561C100.005 77.9081 100.216 78.2371 100.222 78.743C100.237 80.2961 100.25 81.8479 100.264 83.401L100.275 84.6798C100.275 84.8115 100.275 84.9432 100.275 85.0898V85.2202C98.3157 84.6894 95.7869 83.9223 93.3992 82.6842C91.8485 81.8805 90.6438 80.979 89.7158 79.9296C88.3538 78.3887 87.6714 76.4813 87.7935 74.5603C87.9156 72.6365 88.8367 70.8282 90.3874 69.4679C92.033 68.0247 93.9866 66.955 96.1966 66.2911C99.5421 65.2851 103.334 64.1447 107.081 63.3858C108.326 63.1333 109.55 63.0057 110.716 63.0057M110.716 62.9256C109.492 62.9256 108.269 63.0641 107.065 63.3071C103.388 64.051 99.7714 65.1317 96.1735 66.2137C94.0314 66.8586 92.0439 67.908 90.3345 69.4068C87.0975 72.2469 86.8099 76.7596 89.6562 79.9825C90.7008 81.165 91.976 82.0366 93.3625 82.7548C95.5644 83.8952 97.9033 84.6622 100.355 85.3234C100.355 85.0722 100.356 84.8753 100.355 84.6771C100.337 82.6977 100.321 80.7184 100.302 78.7403C100.294 77.8715 100.271 77.9217 99.4743 77.6271C98.1977 77.1546 96.917 76.6713 95.6974 76.074C94.5917 75.5323 94.395 74.5345 95.1248 73.5298C95.4206 73.1239 95.8303 72.7628 96.2604 72.5008C97.6414 71.6604 99.203 71.3047 100.775 71.1282C102.535 70.93 104.312 70.8988 106.084 70.816C106.194 70.8105 106.304 70.8078 106.415 70.8078C106.765 70.8078 107.118 70.8336 107.462 70.8839C109.012 71.1119 110.549 71.4595 112.105 71.5912C112.514 71.6251 112.924 71.6455 113.333 71.6455C114.711 71.6455 116.076 71.4283 117.377 70.8608C119.595 69.8942 120.162 67.5048 118.599 65.6612C117.814 64.7339 116.774 64.1705 115.651 63.7646C114.033 63.1781 112.373 62.9256 110.717 62.9256H110.716Z" fill="#36A500"/>
<path d="M101.673 143.436C99.6995 142.784 97.8341 142.169 96.316 140.776C94.7043 139.298 94.5008 137.037 95.8222 135.279C96.9916 133.722 98.6359 132.811 100.09 132.124C101.162 131.619 102.265 131.134 103.331 130.665C104.556 130.127 105.822 129.57 107.047 128.98C107.768 128.632 108.439 128.157 109.09 127.698C109.345 127.518 109.61 127.332 109.873 127.155C110.329 126.85 110.399 126.39 110.406 125.978C110.443 124.044 110.498 122.147 110.557 120.139C110.576 119.477 110.595 118.809 110.614 118.137C112.428 119.026 113.642 119.948 114.543 121.119C115.781 122.731 116.31 124.927 115.959 126.996C115.712 128.453 114.908 130.522 112.487 132.104C110.697 133.273 108.748 134.022 106.57 134.814C105.194 135.313 103.757 135.878 102.297 136.493C101.838 136.687 101.46 137.029 101.226 137.282C100.717 137.83 100.759 138.472 101.344 139.044C101.504 139.201 101.627 139.465 101.652 139.701C101.747 140.638 101.819 141.569 101.896 142.553C101.922 142.875 101.946 143.202 101.973 143.533L101.675 143.434L101.673 143.436Z" fill="#36A500"/>
<path d="M110.65 118.202C112.428 119.08 113.622 119.991 114.509 121.146C115.741 122.748 116.267 124.934 115.918 126.992C115.673 128.442 114.874 130.5 112.464 132.074C110.678 133.241 108.731 133.989 106.556 134.78C105.179 135.279 103.741 135.844 102.281 136.459C101.815 136.656 101.433 137.002 101.196 137.257C100.67 137.823 100.713 138.486 101.315 139.075C101.467 139.223 101.588 139.484 101.611 139.708C101.706 140.643 101.778 141.57 101.855 142.553C101.88 142.857 101.903 143.165 101.928 143.479L101.688 143.4C99.7185 142.75 97.8572 142.136 96.3445 140.749C95.5563 140.025 95.0923 139.12 95.0041 138.13C94.9159 137.142 95.2103 136.164 95.8561 135.306C97.0201 133.757 98.6589 132.848 100.109 132.163C101.18 131.658 102.284 131.174 103.35 130.704C104.575 130.166 105.841 129.61 107.066 129.019C107.789 128.67 108.464 128.194 109.115 127.734C109.37 127.553 109.634 127.367 109.896 127.191C110.368 126.876 110.44 126.402 110.448 125.981C110.485 124.046 110.541 122.15 110.599 120.143C110.618 119.501 110.637 118.855 110.655 118.203M110.579 118.077C110.504 120.766 110.42 123.373 110.37 125.98C110.36 126.463 110.254 126.855 109.854 127.124C108.923 127.747 108.033 128.464 107.034 128.946C104.742 130.052 102.378 131.004 100.077 132.09C98.4514 132.857 96.9075 133.775 95.7937 135.257C94.4547 137.039 94.6541 139.304 96.2929 140.809C97.9101 142.293 99.9491 142.908 102.021 143.595C101.911 142.237 101.821 140.968 101.694 139.701C101.669 139.462 101.545 139.186 101.375 139.019C100.835 138.49 100.741 137.869 101.258 137.313C101.553 136.997 101.922 136.699 102.316 136.534C103.726 135.939 105.149 135.377 106.587 134.856C108.637 134.112 110.669 133.346 112.513 132.142C117 129.212 116.796 123.985 114.578 121.099C113.535 119.741 112.147 118.84 110.58 118.077H110.579Z" fill="#36A500"/>
<path d="M102.288 73.0234L102.639 72.9977C103.592 72.9257 104.575 72.8524 105.544 72.8524C106.967 72.8524 108.116 73.0126 109.159 73.3561V77.3569C109.159 81.0836 109.161 84.7803 109.157 88.4784C109.155 89.5401 109.132 90.6275 109.088 91.8032C109.081 91.9811 108.974 92.2458 108.862 92.2906C107.154 92.9694 105.459 93.621 103.664 94.3107L102.483 94.7641L102.289 73.0248L102.288 73.0234Z" fill="#36A500"/>
<path d="M105.544 72.8117V72.8918C106.949 72.8918 108.088 73.0479 109.119 73.3846C109.119 74.7177 109.119 76.0455 109.119 77.3705C109.119 81.0157 109.12 84.7844 109.116 88.4784C109.116 89.5374 109.093 90.6248 109.048 91.8018C109.041 91.9783 108.934 92.2186 108.847 92.2526C107.145 92.9287 105.456 93.5776 103.668 94.2645C103.288 94.4098 102.907 94.5564 102.521 94.7044L102.327 73.0615L102.641 73.0384C103.592 72.9664 104.577 72.8931 105.543 72.8931V72.813M105.543 72.813C104.442 72.813 103.335 72.908 102.246 72.9881C102.311 80.2785 102.376 87.4969 102.441 94.8225C104.659 93.9686 106.773 93.1635 108.875 92.3286C109.01 92.2743 109.119 91.9878 109.126 91.8059C109.168 90.6981 109.193 89.589 109.195 88.4798C109.202 83.4539 109.197 78.4267 109.197 73.3289C108.013 72.9338 106.783 72.8144 105.543 72.8144V72.813Z" fill="#36A500"/>
<path d="M103.015 126.552C102.962 125.131 102.911 123.73 102.863 122.328C102.771 119.622 102.681 116.916 102.591 114.21C102.532 112.462 102.414 108.935 102.414 108.935C102.379 107.884 102.836 107.136 103.786 106.692C104.948 106.148 106.138 105.614 107.289 105.098C107.777 104.878 108.265 104.66 108.751 104.44C108.751 105.081 108.755 105.717 108.758 106.349C108.766 107.805 108.773 109.182 108.743 110.587C108.675 113.685 108.584 116.836 108.497 119.881C108.464 121.053 108.43 122.224 108.397 123.396C108.392 123.59 108.381 123.786 108.369 123.98C108.345 124.371 108.322 124.777 108.35 125.172C108.385 125.684 108.192 126.027 107.746 126.254C106.49 126.892 105.212 127.516 104.128 128.043C103.897 128.154 103.658 128.249 103.406 128.35C103.301 128.391 103.196 128.433 103.087 128.478L103.017 126.55L103.015 126.552Z" fill="#36A500"/>
<path d="M108.71 104.502C108.71 105.124 108.714 105.747 108.717 106.35C108.725 107.807 108.732 109.182 108.702 110.586C108.636 113.682 108.545 116.829 108.457 119.873C108.423 121.047 108.389 122.222 108.356 123.395C108.351 123.589 108.34 123.786 108.328 123.977C108.305 124.369 108.282 124.775 108.309 125.175C108.343 125.667 108.157 126 107.727 126.219C106.468 126.858 105.191 127.481 104.109 128.008C103.879 128.119 103.641 128.214 103.388 128.315C103.301 128.349 103.213 128.384 103.124 128.421C103.101 127.796 103.078 127.176 103.055 126.561C103 125.105 102.95 123.731 102.901 122.326C102.809 119.614 102.718 116.9 102.627 114.187C102.569 112.447 102.51 110.705 102.452 108.965V108.933C102.417 107.9 102.866 107.165 103.799 106.729C104.962 106.186 106.152 105.651 107.302 105.135C107.772 104.924 108.241 104.714 108.709 104.502M108.789 104.379C107.119 105.135 105.434 105.878 103.767 106.657C102.308 107.338 102.319 107.357 102.373 108.969C102.523 113.423 102.669 117.877 102.821 122.33C102.89 124.379 102.97 126.426 103.046 128.54C103.44 128.377 103.801 128.248 104.143 128.082C105.353 127.495 106.561 126.903 107.762 126.293C108.204 126.069 108.424 125.718 108.388 125.173C108.348 124.587 108.419 123.992 108.435 123.4C108.554 119.13 108.689 114.861 108.781 110.59C108.826 108.541 108.789 106.492 108.789 104.38V104.379Z" fill="#36A500"/>
<path d="M99.8162 153.357C99.2125 153.357 98.6684 153.144 98.2872 152.757C97.9304 152.396 97.7378 151.904 97.7446 151.374C97.7581 150.274 98.6956 149.444 99.9233 149.444H99.9437C100.06 149.444 100.178 149.444 100.295 149.444C103.141 149.444 105.477 149.192 107.651 148.649C108.181 148.516 108.7 148.303 109.2 148.096L109.318 148.047C109.545 147.954 109.703 147.8 109.752 147.627C109.793 147.485 109.759 147.335 109.656 147.192C109.296 146.698 109.341 146.181 109.387 145.634C109.393 145.563 109.4 145.492 109.405 145.423C109.461 144.662 109.52 143.901 109.584 143.104L109.661 142.12C112.122 143.384 113.385 145.015 113.634 147.248C113.835 149.048 112.942 150.555 111.118 151.492C109.573 152.286 107.826 152.773 105.779 152.985C103.791 153.19 101.796 153.28 99.9233 153.354C99.8881 153.356 99.8528 153.357 99.8175 153.357H99.8162Z" fill="#36A500"/>
<path d="M109.694 142.184C112.106 143.437 113.346 145.051 113.592 147.253C113.791 149.036 112.905 150.529 111.098 151.456C109.557 152.248 107.815 152.735 105.772 152.944C103.783 153.149 101.79 153.239 99.9193 153.314C99.884 153.315 99.8501 153.316 99.8162 153.316C99.2233 153.316 98.6901 153.107 98.3157 152.727C97.967 152.373 97.7785 151.892 97.7853 151.372C97.7988 150.294 98.7186 149.482 99.9233 149.482H99.9423C100.059 149.482 100.177 149.482 100.294 149.482C103.143 149.482 105.483 149.23 107.658 148.686C108.191 148.552 108.712 148.338 109.214 148.132L109.33 148.084C109.569 147.986 109.736 147.823 109.789 147.637C109.832 147.484 109.797 147.321 109.686 147.169C109.336 146.687 109.379 146.177 109.424 145.636C109.429 145.566 109.436 145.495 109.442 145.425C109.497 144.664 109.557 143.909 109.621 143.108C109.645 142.806 109.67 142.498 109.694 142.181M109.623 142.055C109.53 143.246 109.44 144.332 109.362 145.418C109.317 146.033 109.206 146.642 109.621 147.214C109.868 147.553 109.651 147.864 109.301 148.008C108.757 148.232 108.207 148.464 107.639 148.607C105.227 149.21 102.77 149.401 100.294 149.401C100.177 149.401 100.06 149.401 99.9423 149.401C99.9356 149.401 99.9288 149.401 99.922 149.401C98.6562 149.401 97.7174 150.251 97.7038 151.371C97.6889 152.514 98.5694 153.395 99.8162 153.395C99.8514 153.395 99.8867 153.395 99.9233 153.392C101.878 153.315 103.836 153.223 105.781 153.023C107.64 152.832 109.454 152.389 111.135 151.526C112.965 150.586 113.875 149.067 113.672 147.242C113.391 144.729 111.848 143.187 109.623 142.056V142.055Z" fill="#36A500"/>
<path d="M104.297 147.175C104.262 146.741 104.225 146.318 104.189 145.9C104.106 144.932 104.027 144.018 103.966 143.092C103.873 141.667 103.797 140.146 103.731 138.442C103.725 138.279 103.856 138.026 103.969 137.981C104.978 137.586 105.989 137.218 107.058 136.827C107.347 136.721 107.64 136.614 107.937 136.505C107.915 136.881 107.895 137.248 107.876 137.609C107.831 138.438 107.788 139.222 107.734 140.01C107.664 141.006 107.59 142.002 107.514 142.997C107.445 143.919 107.375 144.841 107.31 145.763L107.308 145.803C107.268 146.365 106.963 146.701 106.395 146.811C105.925 146.902 105.456 146.979 104.959 147.062C104.744 147.097 104.524 147.134 104.297 147.173V147.175Z" fill="#36A500"/>
<path d="M107.894 136.563C107.873 136.918 107.854 137.265 107.835 137.606C107.791 138.436 107.747 139.219 107.693 140.008C107.624 141.004 107.548 142.017 107.473 142.996C107.405 143.901 107.335 144.838 107.27 145.76L107.267 145.801C107.238 146.215 107.224 146.422 107.123 146.534C107.024 146.645 106.814 146.688 106.385 146.771C105.916 146.862 105.445 146.941 104.947 147.024C104.746 147.058 104.541 147.092 104.331 147.127C104.297 146.709 104.262 146.299 104.227 145.894C104.144 144.928 104.065 144.014 104.004 143.088C103.912 141.665 103.835 140.145 103.771 138.44C103.765 138.296 103.886 138.055 103.982 138.017C104.99 137.624 106 137.254 107.069 136.863C107.34 136.764 107.614 136.664 107.892 136.562M107.979 136.445C106.571 136.963 105.255 137.434 103.953 137.943C103.817 137.996 103.684 138.274 103.691 138.442C103.749 139.993 103.824 141.545 103.925 143.092C104.014 144.436 104.141 145.778 104.259 147.219C105.022 147.089 105.714 146.982 106.401 146.849C107.299 146.675 107.286 146.665 107.35 145.764C107.484 143.846 107.639 141.93 107.773 140.012C107.853 138.858 107.909 137.701 107.981 136.445H107.979Z" fill="#36A500"/>
<path d="M105.836 51.6656C103.448 51.6656 101.507 49.7215 101.507 47.3335C101.507 44.9454 103.449 43 105.836 43C108.222 43 110.165 44.9441 110.165 47.3321C110.165 49.7201 108.222 51.6642 105.836 51.6642V51.6656Z" fill="#36A500"/>
</svg>
